<svg width="230" height="65" viewBox="0 0 230 65" fill="none" xmlns="http://www.w3.org/2000/svg">
<path d="M72.8639 27.507H68.8496C68.3594 27.507 67.9487 27.3347 67.6175 26.9903C67.2862 26.6458 67.1206 26.2351 67.1206 25.7582C67.1206 25.2812 67.2862 24.8705 67.6175 24.526C67.9487 24.1683 68.3594 23.9895 68.8496 23.9895L74.5929 24.0292C75.0963 24.0292 75.5269 24.1948 75.8846 24.526C76.2424 24.844 76.4212 25.2547 76.4212 25.7582V31.9983C76.4212 32.2765 76.3616 32.5216 76.2424 32.7336C76.1364 32.9456 75.9906 33.1443 75.8051 33.3298C74.3478 34.6679 72.8043 35.6284 71.1747 36.2114C69.5584 36.7943 67.8891 37.0858 66.1667 37.0858C64.9876 37.0858 63.8482 36.9268 62.7486 36.6088C61.6489 36.2909 60.6155 35.847 59.6484 35.2773C58.6945 34.7076 57.8134 34.0187 57.0053 33.2105C56.2103 32.4024 55.528 31.5147 54.9583 30.5475C54.3887 29.5671 53.9448 28.5139 53.6269 27.3877C53.3089 26.2616 53.1499 25.0957 53.1499 23.8901C53.1499 22.6845 53.3023 21.5186 53.607 20.3924C53.9117 19.2663 54.3489 18.213 54.9186 17.2326C55.4883 16.239 56.164 15.3381 56.9457 14.5299C57.7406 13.7217 58.6282 13.0262 59.6086 12.4432C60.589 11.8603 61.6423 11.4098 62.7684 11.0919C63.8946 10.7606 65.0737 10.595 66.3058 10.595C68.1342 10.595 69.8366 10.9263 71.4132 11.5887C72.9898 12.2511 74.4405 13.2381 75.7654 14.5498C76.1099 14.9207 76.2821 15.3314 76.2821 15.7819C76.2821 16.0204 76.2291 16.2456 76.1231 16.4576C76.0304 16.6563 75.8979 16.8352 75.7257 16.9941C75.5667 17.1531 75.3746 17.279 75.1493 17.3717C74.9374 17.4645 74.7121 17.5108 74.4737 17.5108C74.2617 17.5108 74.0497 17.4711 73.8377 17.3916C73.639 17.3121 73.4535 17.1863 73.2813 17.014C72.3141 16.0601 71.2344 15.3447 70.042 14.8677C68.8496 14.3908 67.6108 14.1523 66.3257 14.1523C65.0273 14.1523 63.7886 14.404 62.6095 14.9075C61.4436 15.3977 60.4168 16.08 59.5291 16.9544C58.6547 17.8156 57.9592 18.8423 57.4425 20.0347C56.9258 21.2139 56.6674 22.4923 56.6674 23.8702C56.6674 25.1686 56.9125 26.4073 57.4027 27.5865C57.8929 28.7524 58.5686 29.7791 59.4298 30.6668C60.2909 31.5544 61.3045 32.2633 62.4704 32.7932C63.6495 33.3231 64.9147 33.5881 66.2661 33.5881C67.4717 33.5881 68.631 33.4093 69.7439 33.0515C70.8568 32.6938 71.8968 32.091 72.8639 31.2431V27.507Z" fill="white"/>
<path d="M80.0381 27.8249C80.0381 26.4338 80.3031 25.1222 80.833 23.8901C81.363 22.658 82.085 21.5848 82.9992 20.6707C83.9133 19.7432 84.9799 19.0146 86.1987 18.4846C87.4309 17.9414 88.7425 17.6698 90.1336 17.6698H90.233C90.8292 17.6698 91.2796 17.8354 91.5843 18.1667C91.9023 18.4979 92.0613 18.9152 92.0613 19.4187C92.0613 19.9221 91.8824 20.3394 91.5247 20.6707C91.167 21.0019 90.7364 21.1675 90.233 21.1675H90.1336C89.2327 21.1675 88.3848 21.3463 87.5899 21.7041C86.7949 22.0485 86.0928 22.5255 85.4833 23.1349C84.8871 23.7311 84.4102 24.4333 84.0525 25.2415C83.708 26.0496 83.5358 26.9108 83.5358 27.8249V35.0985C83.5358 35.6019 83.3701 36.0193 83.0389 36.3505C82.721 36.6817 82.3235 36.8473 81.8465 36.8473C81.6081 36.8473 81.3762 36.8075 81.151 36.7281C80.939 36.6353 80.7469 36.5095 80.5747 36.3505C80.4157 36.1915 80.2832 36.006 80.1772 35.794C80.0845 35.582 80.0381 35.3502 80.0381 35.0985V27.8249Z" fill="white"/>
<path d="M95.9763 27.3877C95.9763 28.2357 96.1353 29.0372 96.4532 29.7924C96.7844 30.5343 97.2283 31.1901 97.7847 31.7598C98.3412 32.3162 98.9903 32.7601 99.7323 33.0913C100.487 33.4093 101.296 33.5682 102.157 33.5682C103.031 33.5682 103.839 33.4093 104.581 33.0913C105.336 32.7601 105.992 32.3162 106.549 31.7598C107.105 31.1901 107.542 30.5343 107.86 29.7924C108.178 29.0372 108.337 28.2357 108.337 27.3877C108.337 26.5398 108.178 25.7449 107.86 25.003C107.542 24.2478 107.105 23.592 106.549 23.0355C105.992 22.4791 105.336 22.0419 104.581 21.7239C103.839 21.3927 103.031 21.2271 102.157 21.2271C101.296 21.2271 100.487 21.3927 99.7323 21.7239C98.9903 22.0419 98.3412 22.4791 97.7847 23.0355C97.2283 23.592 96.7844 24.2478 96.4532 25.003C96.1353 25.7449 95.9763 26.5398 95.9763 27.3877ZM92.4587 27.3877C92.4587 26.0496 92.7105 24.791 93.2139 23.6119C93.7306 22.4327 94.4262 21.406 95.3006 20.5315C96.1882 19.6439 97.215 18.9483 98.3809 18.4449C99.56 17.9282 100.819 17.6698 102.157 17.6698C103.508 17.6698 104.773 17.9282 105.953 18.4449C107.132 18.9483 108.158 19.6439 109.033 20.5315C109.907 21.406 110.596 22.4327 111.1 23.6119C111.603 24.791 111.855 26.0496 111.855 27.3877C111.855 28.7259 111.603 29.9845 111.1 31.1636C110.596 32.3427 109.907 33.3695 109.033 34.2439C108.158 35.1183 107.132 35.8139 105.953 36.3306C104.773 36.834 103.508 37.0858 102.157 37.0858C100.819 37.0858 99.56 36.834 98.3809 36.3306C97.215 35.8139 96.1882 35.1183 95.3006 34.2439C94.4262 33.3695 93.7306 32.3427 93.2139 31.1636C92.7105 29.9845 92.4587 28.7259 92.4587 27.3877Z" fill="white"/>
<path d="M114.498 19.4187C114.498 18.9285 114.664 18.5177 114.995 18.1865C115.339 17.8421 115.757 17.6698 116.247 17.6698C116.724 17.6698 117.134 17.8421 117.479 18.1865C117.823 18.5177 117.996 18.9285 117.996 19.4187V27.8448C118.009 28.6397 118.161 29.3883 118.453 30.0905C118.757 30.7794 119.161 31.3822 119.665 31.8989C120.182 32.4156 120.784 32.8263 121.473 33.131C122.162 33.4225 122.911 33.5682 123.719 33.5682C124.527 33.5682 125.256 33.4159 125.905 33.1112C126.567 32.8064 127.131 32.3891 127.594 31.8592C128.058 31.3292 128.416 30.7132 128.667 30.011C128.932 29.2955 129.065 28.5338 129.065 27.7256V19.4187C129.065 19.1802 129.111 18.955 129.204 18.743C129.31 18.531 129.442 18.3455 129.601 18.1865C129.76 18.0275 129.946 17.9017 130.158 17.8089C130.383 17.7162 130.615 17.6698 130.853 17.6698C131.357 17.6698 131.768 17.8421 132.086 18.1865C132.417 18.5177 132.582 18.9285 132.582 19.4187V27.6461V27.7455C132.582 29.0306 132.357 30.2428 131.907 31.3822C131.469 32.5084 130.86 33.4954 130.078 34.3433C129.297 35.1912 128.363 35.8603 127.276 36.3505C126.19 36.8407 125.004 37.0858 123.719 37.0858C122.421 37.0858 121.208 36.8407 120.082 36.3505C118.969 35.8603 117.996 35.1912 117.161 34.3433C116.339 33.4954 115.69 32.5084 115.213 31.3822C114.736 30.2428 114.498 29.0306 114.498 27.7455V19.4187Z" fill="white"/>
<path d="M135.722 27.1095V27.03C135.722 25.7449 135.954 24.5326 136.418 23.3933C136.895 22.2539 137.544 21.2602 138.365 20.4123C139.187 19.5644 140.154 18.8953 141.267 18.4051C142.38 17.9149 143.579 17.6698 144.864 17.6698C146.162 17.6698 147.368 17.9149 148.481 18.4051C149.607 18.8953 150.581 19.5644 151.402 20.4123C152.237 21.2602 152.886 22.2539 153.35 23.3933C153.827 24.5326 154.065 25.7449 154.065 27.03V27.1294V35.1183C154.065 35.6218 153.9 36.0391 153.568 36.3703C153.237 36.6883 152.826 36.8473 152.336 36.8473C151.846 36.8473 151.429 36.6883 151.084 36.3703C150.74 36.0391 150.567 35.6218 150.567 35.1183V27.1095V27.0698C150.554 26.2616 150.402 25.5064 150.11 24.8042C149.819 24.0888 149.415 23.4661 148.898 22.9362C148.395 22.4062 147.799 21.9889 147.11 21.6842C146.421 21.3662 145.672 21.2072 144.864 21.2072C144.056 21.2072 143.307 21.3596 142.618 21.6643C141.943 21.9558 141.353 22.3665 140.85 22.8964C140.346 23.4264 139.949 24.0491 139.657 24.7645C139.379 25.4667 139.24 26.2219 139.24 27.03V35.1183C139.24 35.6218 139.074 36.0391 138.743 36.3703C138.425 36.6883 138.021 36.8473 137.531 36.8473C137.292 36.8473 137.06 36.8075 136.835 36.7281C136.623 36.6353 136.431 36.5161 136.259 36.3703C136.1 36.2114 135.967 36.0259 135.861 35.8139C135.769 35.6019 135.722 35.3701 135.722 35.1183V27.1095Z" fill="white"/>
<path d="M156.847 27.3877C156.847 26.0496 157.099 24.791 157.603 23.6119C158.119 22.4327 158.815 21.406 159.689 20.5315C160.577 19.6439 161.604 18.9483 162.77 18.4449C163.949 17.9282 165.207 17.6698 166.545 17.6698C167.34 17.6698 168.056 17.7493 168.692 17.9083C169.328 18.0673 169.891 18.2991 170.381 18.6039C170.884 18.9086 171.328 19.2795 171.712 19.7168C172.097 20.154 172.434 20.6508 172.726 21.2072V5.2248C172.726 4.7081 172.891 4.27752 173.223 3.93306C173.554 3.57534 173.971 3.39648 174.475 3.39648C174.978 3.39648 175.396 3.57534 175.727 3.93306C176.071 4.27752 176.243 4.7081 176.243 5.2248V27.3877V27.507C176.23 28.8318 175.965 30.0772 175.449 31.2431C174.945 32.3957 174.256 33.4093 173.382 34.2837C172.507 35.1448 171.481 35.8272 170.301 36.3306C169.136 36.834 167.883 37.0858 166.545 37.0858C165.207 37.0858 163.949 36.834 162.77 36.3306C161.604 35.8139 160.577 35.1183 159.689 34.2439C158.815 33.3695 158.119 32.3427 157.603 31.1636C157.099 29.9845 156.847 28.7259 156.847 27.3877ZM160.365 27.3877C160.365 28.2357 160.524 29.0372 160.842 29.7924C161.173 30.5343 161.617 31.1901 162.173 31.7598C162.73 32.3162 163.379 32.7601 164.121 33.0913C164.876 33.4093 165.684 33.5682 166.545 33.5682C167.42 33.5682 168.228 33.4093 168.97 33.0913C169.725 32.7601 170.381 32.3162 170.937 31.7598C171.494 31.1901 171.931 30.5343 172.249 29.7924C172.567 29.0372 172.726 28.2357 172.726 27.3877C172.726 26.5398 172.567 25.7449 172.249 25.003C171.931 24.2478 171.494 23.592 170.937 23.0355C170.381 22.4791 169.725 22.0419 168.97 21.7239C168.228 21.3927 167.42 21.2271 166.545 21.2271C165.684 21.2271 164.876 21.3927 164.121 21.7239C163.379 22.0419 162.73 22.4791 162.173 23.0355C161.617 23.592 161.173 24.2478 160.842 25.003C160.524 25.7449 160.365 26.5398 160.365 27.3877Z" fill="white"/>
<path d="M188.982 19.4187C188.982 18.9285 189.148 18.5177 189.479 18.1865C189.823 17.8421 190.241 17.6698 190.731 17.6698C191.208 17.6698 191.619 17.8421 191.963 18.1865C192.307 18.5177 192.48 18.9285 192.48 19.4187V27.8448C192.493 28.6397 192.645 29.3883 192.937 30.0905C193.241 30.7794 193.646 31.3822 194.149 31.8989C194.666 32.4156 195.269 32.8263 195.957 33.131C196.646 33.4225 197.395 33.5682 198.203 33.5682C199.011 33.5682 199.74 33.4159 200.389 33.1112C201.052 32.8064 201.615 32.3891 202.078 31.8592C202.542 31.3292 202.9 30.7132 203.151 30.011C203.416 29.2955 203.549 28.5338 203.549 27.7256V19.4187C203.549 19.1802 203.595 18.955 203.688 18.743C203.794 18.531 203.927 18.3455 204.086 18.1865C204.245 18.0275 204.43 17.9017 204.642 17.8089C204.867 17.7162 205.099 17.6698 205.338 17.6698C205.841 17.6698 206.252 17.8421 206.57 18.1865C206.901 18.5177 207.066 18.9285 207.066 19.4187V27.6461V27.7455C207.066 29.0306 206.841 30.2428 206.391 31.3822C205.954 32.5084 205.344 33.4954 204.562 34.3433C203.781 35.1912 202.847 35.8603 201.76 36.3505C200.674 36.8407 199.488 37.0858 198.203 37.0858C196.905 37.0858 195.692 36.8407 194.566 36.3505C193.453 35.8603 192.48 35.1912 191.645 34.3433C190.824 33.4954 190.174 32.5084 189.697 31.3822C189.221 30.2428 188.982 29.0306 188.982 27.7455V19.4187Z" fill="white"/>
<path d="M210.604 27.3877C210.604 26.0496 210.856 24.791 211.359 23.6119C211.876 22.4327 212.571 21.406 213.446 20.5315C214.333 19.6439 215.367 18.9483 216.546 18.4449C217.725 17.9282 218.984 17.6698 220.322 17.6698C221.66 17.6698 222.919 17.9282 224.098 18.4449C225.277 18.9483 226.304 19.6439 227.178 20.5315C228.052 21.406 228.741 22.4327 229.245 23.6119C229.748 24.791 230 26.0496 230 27.3877C230 28.7259 229.748 29.9845 229.245 31.1636C228.741 32.3427 228.052 33.3695 227.178 34.2439C226.304 35.1183 225.277 35.8139 224.098 36.3306C222.919 36.834 221.66 37.0858 220.322 37.0858C219.116 37.0858 217.99 36.8937 216.943 36.5095C215.897 36.112 214.949 35.5555 214.102 34.8401V51.619C214.102 52.1224 213.943 52.553 213.625 52.9107C213.32 53.2684 212.909 53.4473 212.392 53.4473C211.902 53.4473 211.478 53.2684 211.121 52.9107C210.776 52.5663 210.604 52.1357 210.604 51.619V27.3877ZM214.121 27.3877C214.121 28.2357 214.28 29.0372 214.598 29.7924C214.93 30.5343 215.373 31.1901 215.93 31.7598C216.486 32.3162 217.142 32.7601 217.897 33.0913C218.652 33.4093 219.461 33.5682 220.322 33.5682C221.183 33.5682 221.991 33.4093 222.746 33.0913C223.501 32.7601 224.157 32.3162 224.714 31.7598C225.27 31.1901 225.707 30.5343 226.025 29.7924C226.343 29.0372 226.502 28.2357 226.502 27.3877C226.502 26.5398 226.343 25.7449 226.025 25.003C225.707 24.2478 225.27 23.592 224.714 23.0355C224.157 22.4791 223.501 22.0419 222.746 21.7239C221.991 21.3927 221.183 21.2271 220.322 21.2271C219.461 21.2271 218.652 21.3927 217.897 21.7239C217.142 22.0419 216.486 22.4791 215.93 23.0355C215.373 23.592 214.93 24.2478 214.598 25.003C214.28 25.7449 214.121 26.5398 214.121 27.3877Z" fill="white"/>
<path d="M188.982 19.4187C188.982 18.9285 189.148 18.5177 189.479 18.1865C189.823 17.8421 190.241 17.6698 190.731 17.6698C191.208 17.6698 191.619 17.8421 191.963 18.1865C192.307 18.5177 192.48 18.9285 192.48 19.4187V27.8448C192.493 28.6397 192.645 29.3883 192.937 30.0905C193.241 30.7794 193.646 31.3822 194.149 31.8989C194.666 32.4156 195.269 32.8263 195.957 33.131C196.646 33.4225 197.395 33.5682 198.203 33.5682C199.011 33.5682 199.74 33.4159 200.389 33.1112C201.052 32.8064 201.615 32.3891 202.078 31.8592C202.542 31.3292 202.9 30.7132 203.151 30.011C203.416 29.2955 203.549 28.5338 203.549 27.7256V19.4187C203.549 19.1802 203.595 18.955 203.688 18.743C203.794 18.531 203.927 18.3455 204.086 18.1865C204.245 18.0275 204.43 17.9017 204.642 17.8089C204.867 17.7162 205.099 17.6698 205.338 17.6698C205.841 17.6698 206.252 17.8421 206.57 18.1865C206.901 18.5177 207.066 18.9285 207.066 19.4187V27.6461V27.7455C207.066 29.0306 206.841 30.2428 206.391 31.3822C205.954 32.5084 205.344 33.4954 204.562 34.3433C203.781 35.1912 202.847 35.8603 201.76 36.3505C200.674 36.8407 199.488 37.0858 198.203 37.0858C196.905 37.0858 195.692 36.8407 194.566 36.3505C193.453 35.8603 192.48 35.1912 191.645 34.3433C190.824 33.4954 190.174 32.5084 189.697 31.3822C189.221 30.2428 188.982 29.0306 188.982 27.7455V19.4187Z" fill="white"/>
<path d="M210.604 27.3877C210.604 26.0496 210.856 24.791 211.359 23.6119C211.876 22.4327 212.571 21.406 213.446 20.5315C214.333 19.6439 215.367 18.9483 216.546 18.4449C217.725 17.9282 218.984 17.6698 220.322 17.6698C221.66 17.6698 222.919 17.9282 224.098 18.4449C225.277 18.9483 226.304 19.6439 227.178 20.5315C228.052 21.406 228.741 22.4327 229.245 23.6119C229.748 24.791 230 26.0496 230 27.3877C230 28.7259 229.748 29.9845 229.245 31.1636C228.741 32.3427 228.052 33.3695 227.178 34.2439C226.304 35.1183 225.277 35.8139 224.098 36.3306C222.919 36.834 221.66 37.0858 220.322 37.0858C219.116 37.0858 217.99 36.8937 216.943 36.5095C215.897 36.112 214.949 35.5555 214.102 34.8401V51.619C214.102 52.1224 213.943 52.553 213.625 52.9107C213.32 53.2684 212.909 53.4473 212.392 53.4473C211.902 53.4473 211.478 53.2684 211.121 52.9107C210.776 52.5663 210.604 52.1357 210.604 51.619V27.3877ZM214.121 27.3877C214.121 28.2357 214.28 29.0372 214.598 29.7924C214.93 30.5343 215.373 31.1901 215.93 31.7598C216.486 32.3162 217.142 32.7601 217.897 33.0913C218.652 33.4093 219.461 33.5682 220.322 33.5682C221.183 33.5682 221.991 33.4093 222.746 33.0913C223.501 32.7601 224.157 32.3162 224.714 31.7598C225.27 31.1901 225.707 30.5343 226.025 29.7924C226.343 29.0372 226.502 28.2357 226.502 27.3877C226.502 26.5398 226.343 25.7449 226.025 25.003C225.707 24.2478 225.27 23.592 224.714 23.0355C224.157 22.4791 223.501 22.0419 222.746 21.7239C221.991 21.3927 221.183 21.2271 220.322 21.2271C219.461 21.2271 218.652 21.3927 217.897 21.7239C217.142 22.0419 216.486 22.4791 215.93 23.0355C215.373 23.592 214.93 24.2478 214.598 25.003C214.28 25.7449 214.121 26.5398 214.121 27.3877Z" fill="white"/>
<path d="M89.2787 45.1818C89.903 45.1818 90.4243 45.391 90.8427 45.8094C91.261 46.2278 91.4702 46.7491 91.4702 47.3734C91.4702 47.9976 91.261 48.5189 90.8427 48.9373C90.4243 49.3557 89.903 49.5649 89.2787 49.5649H87.4856V52.1549H86.7883V45.1818H89.2787ZM89.2787 48.9074C89.7104 48.9074 90.0657 48.7647 90.3446 48.4791C90.6301 48.1869 90.7729 47.8183 90.7729 47.3734C90.7729 46.9284 90.6301 46.5631 90.3446 46.2776C90.0657 45.9854 89.7104 45.8393 89.2787 45.8393H87.4856V48.9074H89.2787ZM94.0759 48.4791C94.0759 48.7049 94.1755 48.8842 94.3747 49.017C94.574 49.1498 94.8164 49.2528 95.1019 49.3258C95.3875 49.3989 95.6731 49.4819 95.9586 49.5749C96.2442 49.6612 96.4866 49.8106 96.6858 50.0231C96.8851 50.229 96.9847 50.5013 96.9847 50.84C96.9847 51.265 96.8153 51.6103 96.4766 51.876C96.1446 52.1416 95.7129 52.2744 95.1816 52.2744C94.7035 52.2744 94.295 52.1682 93.9564 51.9557C93.6243 51.7432 93.3919 51.4676 93.259 51.1289L93.8169 50.8001C93.9099 51.0591 94.0759 51.265 94.315 51.4178C94.5607 51.5639 94.8496 51.6369 95.1816 51.6369C95.507 51.6369 95.7793 51.5738 95.9985 51.4476C96.2176 51.3148 96.3272 51.1123 96.3272 50.84C96.3272 50.6142 96.2276 50.4349 96.0284 50.3021C95.8291 50.1692 95.5867 50.0663 95.3012 49.9932C95.0156 49.9202 94.73 49.8405 94.4445 49.7542C94.1589 49.6612 93.9165 49.5118 93.7173 49.3059C93.518 49.0934 93.4184 48.8178 93.4184 48.4791C93.4184 48.074 93.5778 47.7353 93.8966 47.463C94.222 47.1907 94.6304 47.0546 95.1219 47.0546C95.527 47.0546 95.8823 47.1476 96.1877 47.3335C96.4932 47.5128 96.719 47.7585 96.8651 48.0707L96.3172 48.3894C96.1247 47.9246 95.7262 47.6921 95.1219 47.6921C94.8363 47.6921 94.5906 47.7619 94.3847 47.9013C94.1788 48.0341 94.0759 48.2267 94.0759 48.4791ZM102.71 47.1741H103.407L101.275 52.6131C101.083 53.1046 100.807 53.4898 100.448 53.7687C100.096 54.0542 99.7013 54.1804 99.263 54.1472V53.5296C99.8607 53.596 100.316 53.2507 100.628 52.4936L100.757 52.1848L98.5258 47.1741H99.2231L101.096 51.348L102.71 47.1741ZM107.623 52.2744C106.873 52.2744 106.248 52.0254 105.75 51.5273C105.252 51.0226 105.003 50.4017 105.003 49.6645C105.003 48.9274 105.252 48.3097 105.75 47.8117C106.248 47.3069 106.873 47.0546 107.623 47.0546C108.115 47.0546 108.556 47.1741 108.948 47.4132C109.34 47.6456 109.625 47.9611 109.805 48.3596L109.267 48.6684C109.134 48.3695 108.918 48.1338 108.619 47.9611C108.327 47.7818 107.995 47.6921 107.623 47.6921C107.072 47.6921 106.607 47.8847 106.228 48.2699C105.85 48.6484 105.661 49.1133 105.661 49.6645C105.661 50.2157 105.85 50.6839 106.228 51.0691C106.607 51.4476 107.072 51.6369 107.623 51.6369C107.995 51.6369 108.327 51.5506 108.619 51.3779C108.911 51.1986 109.141 50.9595 109.307 50.6607L109.854 50.9794C109.649 51.3779 109.346 51.6934 108.948 51.9258C108.55 52.1582 108.108 52.2744 107.623 52.2744ZM114.424 47.0546C115.029 47.0546 115.504 47.2405 115.849 47.6124C116.201 47.9777 116.377 48.4724 116.377 49.0967V52.1549H115.719V49.0967C115.719 48.6518 115.6 48.3064 115.361 48.0607C115.128 47.815 114.796 47.6921 114.365 47.6921C113.886 47.6921 113.498 47.8449 113.199 48.1504C112.9 48.4492 112.751 48.9141 112.751 49.545V52.1549H112.093V45.1818H112.751V47.9511C113.123 47.3534 113.681 47.0546 114.424 47.0546ZM121.244 47.0546C121.981 47.0546 122.576 47.3169 123.027 47.8415C123.486 48.3596 123.715 48.9738 123.715 49.6844C123.715 49.7575 123.708 49.8604 123.695 49.9932H119.322C119.388 50.498 119.601 50.8997 119.959 51.1986C120.324 51.4908 120.773 51.6369 121.304 51.6369C121.683 51.6369 122.008 51.5605 122.28 51.4078C122.559 51.2484 122.768 51.0425 122.908 50.7902L123.486 51.1289C123.266 51.4808 122.968 51.7598 122.589 51.9656C122.211 52.1715 121.779 52.2744 121.294 52.2744C120.51 52.2744 119.873 52.0287 119.381 51.5373C118.89 51.0459 118.644 50.4216 118.644 49.6645C118.644 48.9207 118.887 48.2998 119.371 47.8017C119.856 47.3036 120.481 47.0546 121.244 47.0546ZM121.244 47.6921C120.726 47.6921 120.291 47.8482 119.939 48.1603C119.594 48.4658 119.388 48.8643 119.322 49.3557H123.037C122.971 48.8311 122.768 48.4226 122.43 48.1304C122.091 47.8382 121.696 47.6921 121.244 47.6921ZM130.339 45.1818H130.996V52.1549H130.339V51.1787C129.881 51.9092 129.21 52.2744 128.327 52.2744C127.616 52.2744 127.009 52.0221 126.504 51.5174C126.006 51.0126 125.757 50.395 125.757 49.6645C125.757 48.934 126.006 48.3164 126.504 47.8117C127.009 47.3069 127.616 47.0546 128.327 47.0546C129.21 47.0546 129.881 47.4198 130.339 48.1504V45.1818ZM126.982 51.0691C127.361 51.4476 127.825 51.6369 128.377 51.6369C128.928 51.6369 129.393 51.4476 129.771 51.0691C130.15 50.6839 130.339 50.2157 130.339 49.6645C130.339 49.1133 130.15 48.6484 129.771 48.2699C129.393 47.8847 128.928 47.6921 128.377 47.6921C127.825 47.6921 127.361 47.8847 126.982 48.2699C126.603 48.6484 126.414 49.1133 126.414 49.6645C126.414 50.2157 126.603 50.6839 126.982 51.0691ZM135.985 47.0546C136.722 47.0546 137.316 47.3169 137.768 47.8415C138.226 48.3596 138.455 48.9738 138.455 49.6844C138.455 49.7575 138.448 49.8604 138.435 49.9932H134.062C134.128 50.498 134.341 50.8997 134.7 51.1986C135.065 51.4908 135.513 51.6369 136.044 51.6369C136.423 51.6369 136.748 51.5605 137.021 51.4078C137.3 51.2484 137.509 51.0425 137.648 50.7902L138.226 51.1289C138.007 51.4808 137.708 51.7598 137.329 51.9656C136.951 52.1715 136.519 52.2744 136.034 52.2744C135.251 52.2744 134.613 52.0287 134.122 51.5373C133.63 51.0459 133.385 50.4216 133.385 49.6645C133.385 48.9207 133.627 48.2998 134.112 47.8017C134.597 47.3036 135.221 47.0546 135.985 47.0546ZM135.985 47.6921C135.467 47.6921 135.032 47.8482 134.68 48.1603C134.334 48.4658 134.128 48.8643 134.062 49.3557H137.778C137.711 48.8311 137.509 48.4226 137.17 48.1304C136.831 47.8382 136.436 47.6921 135.985 47.6921ZM140.796 52.1549V44.883H141.453V52.1549H140.796ZM144.811 45.9787C144.718 46.0717 144.605 46.1182 144.472 46.1182C144.339 46.1182 144.227 46.0717 144.134 45.9787C144.041 45.8858 143.994 45.7729 143.994 45.64C143.994 45.5072 144.041 45.3943 144.134 45.3013C144.227 45.2084 144.339 45.1619 144.472 45.1619C144.605 45.1619 144.718 45.2084 144.811 45.3013C144.904 45.3943 144.95 45.5072 144.95 45.64C144.95 45.7729 144.904 45.8858 144.811 45.9787ZM144.144 52.1549V47.1741H144.801V52.1549H144.144ZM149.812 52.2744C149.062 52.2744 148.438 52.0254 147.939 51.5273C147.441 51.0226 147.192 50.4017 147.192 49.6645C147.192 48.9274 147.441 48.3097 147.939 47.8117C148.438 47.3069 149.062 47.0546 149.812 47.0546C150.304 47.0546 150.745 47.1741 151.137 47.4132C151.529 47.6456 151.815 47.9611 151.994 48.3596L151.456 48.6684C151.323 48.3695 151.107 48.1338 150.808 47.9611C150.516 47.7818 150.184 47.6921 149.812 47.6921C149.261 47.6921 148.796 47.8847 148.418 48.2699C148.039 48.6484 147.85 49.1133 147.85 49.6645C147.85 50.2157 148.039 50.6839 148.418 51.0691C148.796 51.4476 149.261 51.6369 149.812 51.6369C150.184 51.6369 150.516 51.5506 150.808 51.3779C151.101 51.1986 151.33 50.9595 151.496 50.6607L152.044 50.9794C151.838 51.3779 151.536 51.6934 151.137 51.9258C150.739 52.1582 150.297 52.2744 149.812 52.2744ZM158.168 45.1818H158.865V52.1549H158.168V45.1818ZM163.99 47.0546C164.594 47.0546 165.069 47.2405 165.414 47.6124C165.766 47.9777 165.942 48.4724 165.942 49.0967V52.1549H165.285V49.0967C165.285 48.6518 165.165 48.3064 164.926 48.0607C164.694 47.815 164.362 47.6921 163.93 47.6921C163.452 47.6921 163.063 47.8449 162.765 48.1504C162.466 48.4492 162.316 48.9141 162.316 49.545V52.1549H161.659V47.1741H162.316V47.9511C162.688 47.3534 163.246 47.0546 163.99 47.0546ZM169.027 48.4791C169.027 48.7049 169.126 48.8842 169.325 49.017C169.525 49.1498 169.767 49.2528 170.053 49.3258C170.338 49.3989 170.624 49.4819 170.909 49.5749C171.195 49.6612 171.437 49.8106 171.636 50.0231C171.836 50.229 171.935 50.5013 171.935 50.84C171.935 51.265 171.766 51.6103 171.427 51.876C171.095 52.1416 170.664 52.2744 170.132 52.2744C169.654 52.2744 169.246 52.1682 168.907 51.9557C168.575 51.7432 168.343 51.4676 168.21 51.1289L168.768 50.8001C168.861 51.0591 169.027 51.265 169.266 51.4178C169.511 51.5639 169.8 51.6369 170.132 51.6369C170.458 51.6369 170.73 51.5738 170.949 51.4476C171.168 51.3148 171.278 51.1123 171.278 50.84C171.278 50.6142 171.178 50.4349 170.979 50.3021C170.78 50.1692 170.537 50.0663 170.252 49.9932C169.966 49.9202 169.681 49.8405 169.395 49.7542C169.11 49.6612 168.867 49.5118 168.668 49.3059C168.469 49.0934 168.369 48.8178 168.369 48.4791C168.369 48.074 168.528 47.7353 168.847 47.463C169.173 47.1907 169.581 47.0546 170.073 47.0546C170.478 47.0546 170.833 47.1476 171.138 47.3335C171.444 47.5128 171.67 47.7585 171.816 48.0707L171.268 48.3894C171.075 47.9246 170.677 47.6921 170.073 47.6921C169.787 47.6921 169.541 47.7619 169.335 47.9013C169.129 48.0341 169.027 48.2267 169.027 48.4791ZM176.772 47.8117H175.338V50.83C175.338 51.1023 175.391 51.2982 175.497 51.4178C175.604 51.5306 175.763 51.5904 175.975 51.5971C176.188 51.5971 176.454 51.5904 176.772 51.5771V52.1549C176.075 52.2612 175.55 52.2114 175.198 52.0055C174.853 51.7996 174.68 51.4078 174.68 50.83V47.8117H173.634V47.1741H174.68V45.9787L175.338 45.7795V47.1741H176.772V47.8117ZM179.831 45.9787C179.738 46.0717 179.625 46.1182 179.492 46.1182C179.359 46.1182 179.246 46.0717 179.153 45.9787C179.06 45.8858 179.014 45.7729 179.014 45.64C179.014 45.5072 179.06 45.3943 179.153 45.3013C179.246 45.2084 179.359 45.1619 179.492 45.1619C179.625 45.1619 179.738 45.2084 179.831 45.3013C179.924 45.3943 179.97 45.5072 179.97 45.64C179.97 45.7729 179.924 45.8858 179.831 45.9787ZM179.163 52.1549V47.1741H179.821V52.1549H179.163ZM185.151 47.8117H183.716V50.83C183.716 51.1023 183.769 51.2982 183.876 51.4178C183.982 51.5306 184.141 51.5904 184.354 51.5971C184.566 51.5971 184.832 51.5904 185.151 51.5771V52.1549C184.453 52.2612 183.929 52.2114 183.577 52.0055C183.231 51.7996 183.059 51.4078 183.059 50.83V47.8117H182.013V47.1741H183.059V45.9787L183.716 45.7795V47.1741H185.151V47.8117ZM191.048 47.1741H191.705V52.1549H191.048V51.3779C190.676 51.9756 190.118 52.2744 189.374 52.2744C188.77 52.2744 188.292 52.0918 187.94 51.7266C187.595 51.3547 187.422 50.8566 187.422 50.2323V47.1741H188.079V50.2323C188.079 50.6773 188.196 51.0226 188.428 51.2683C188.667 51.514 189.002 51.6369 189.434 51.6369C189.912 51.6369 190.301 51.4875 190.6 51.1886C190.898 50.8831 191.048 50.415 191.048 49.7841V47.1741ZM197.031 47.8117H195.596V50.83C195.596 51.1023 195.65 51.2982 195.756 51.4178C195.862 51.5306 196.022 51.5904 196.234 51.5971C196.447 51.5971 196.712 51.5904 197.031 51.5771V52.1549C196.334 52.2612 195.809 52.2114 195.457 52.0055C195.112 51.7996 194.939 51.4078 194.939 50.83V47.8117H193.893V47.1741H194.939V45.9787L195.596 45.7795V47.1741H197.031V47.8117ZM201.421 47.0546C202.158 47.0546 202.753 47.3169 203.204 47.8415C203.663 48.3596 203.892 48.9738 203.892 49.6844C203.892 49.7575 203.885 49.8604 203.872 49.9932H199.499C199.565 50.498 199.778 50.8997 200.136 51.1986C200.501 51.4908 200.95 51.6369 201.481 51.6369C201.86 51.6369 202.185 51.5605 202.457 51.4078C202.736 51.2484 202.945 51.0425 203.085 50.7902L203.663 51.1289C203.443 51.4808 203.145 51.7598 202.766 51.9656C202.388 52.1715 201.956 52.2744 201.471 52.2744C200.687 52.2744 200.05 52.0287 199.558 51.5373C199.067 51.0459 198.821 50.4216 198.821 49.6645C198.821 48.9207 199.064 48.2998 199.548 47.8017C200.033 47.3036 200.658 47.0546 201.421 47.0546ZM201.421 47.6921C200.903 47.6921 200.468 47.8482 200.116 48.1603C199.771 48.4658 199.565 48.8643 199.499 49.3557H203.214C203.148 48.8311 202.945 48.4226 202.607 48.1304C202.268 47.8382 201.873 47.6921 201.421 47.6921Z" fill="white"/>
<path d="M188.982 19.4184C188.982 18.9282 189.148 18.5175 189.479 18.1863C189.823 17.8419 190.241 17.6696 190.731 17.6696C191.208 17.6696 191.618 17.8419 191.963 18.1863C192.307 18.5175 192.48 18.9282 192.48 19.4184V27.8446C192.493 28.6395 192.645 29.3881 192.937 30.0903C193.241 30.7792 193.645 31.382 194.149 31.8987C194.666 32.4154 195.268 32.8261 195.957 33.1308C196.646 33.4223 197.395 33.568 198.203 33.568C199.011 33.568 199.74 33.4157 200.389 33.111C201.051 32.8062 201.615 32.3889 202.078 31.859C202.542 31.329 202.9 30.7129 203.151 30.0108C203.416 29.2953 203.549 28.5335 203.549 27.7254V19.4184C203.549 19.18 203.595 18.9547 203.688 18.7428C203.794 18.5308 203.926 18.3453 204.085 18.1863C204.244 18.0273 204.43 17.9015 204.642 17.8087C204.867 17.716 205.099 17.6696 205.337 17.6696C205.841 17.6696 206.252 17.8419 206.57 18.1863C206.901 18.5175 207.066 18.9282 207.066 19.4184V27.6459V27.7452C207.066 29.0304 206.841 30.2426 206.391 31.382C205.954 32.5081 205.344 33.4952 204.562 34.3431C203.781 35.191 202.847 35.8601 201.76 36.3503C200.674 36.8405 199.488 37.0856 198.203 37.0856C196.905 37.0856 195.692 36.8405 194.566 36.3503C193.453 35.8601 192.48 35.191 191.645 34.3431C190.824 33.4952 190.174 32.5081 189.697 31.382C189.22 30.2426 188.982 29.0304 188.982 27.7452V19.4184Z" fill="white"/>
<path d="M210.604 27.3875C210.604 26.0494 210.856 24.7908 211.359 23.6117C211.876 22.4325 212.571 21.4057 213.446 20.5313C214.333 19.6437 215.367 18.9481 216.546 18.4447C217.725 17.928 218.984 17.6696 220.322 17.6696C221.66 17.6696 222.918 17.928 224.098 18.4447C225.277 18.9481 226.303 19.6437 227.178 20.5313C228.052 21.4057 228.741 22.4325 229.245 23.6117C229.748 24.7908 230 26.0494 230 27.3875C230 28.7256 229.748 29.9843 229.245 31.1634C228.741 32.3425 228.052 33.3693 227.178 34.2437C226.303 35.1181 225.277 35.8137 224.098 36.3304C222.918 36.8338 221.66 37.0856 220.322 37.0856C219.116 37.0856 217.99 36.8935 216.943 36.5092C215.897 36.1118 214.949 35.5553 214.101 34.8399V51.6188C214.101 52.1222 213.942 52.5528 213.624 52.9105C213.32 53.2682 212.909 53.4471 212.392 53.4471C211.902 53.4471 211.478 53.2682 211.121 52.9105C210.776 52.566 210.604 52.1355 210.604 51.6188V27.3875ZM214.121 27.3875C214.121 28.2354 214.28 29.037 214.598 29.7922C214.929 30.5341 215.373 31.1899 215.93 31.7596C216.486 32.316 217.142 32.7599 217.897 33.0911C218.652 33.409 219.461 33.568 220.322 33.568C221.183 33.568 221.991 33.409 222.746 33.0911C223.501 32.7599 224.157 32.316 224.714 31.7596C225.27 31.1899 225.707 30.5341 226.025 29.7922C226.343 29.037 226.502 28.2354 226.502 27.3875C226.502 26.5396 226.343 25.7447 226.025 25.0028C225.707 24.2476 225.27 23.5918 224.714 23.0353C224.157 22.4789 223.501 22.0417 222.746 21.7237C221.991 21.3925 221.183 21.2269 220.322 21.2269C219.461 21.2269 218.652 21.3925 217.897 21.7237C217.142 22.0417 216.486 22.4789 215.93 23.0353C215.373 23.5918 214.929 24.2476 214.598 25.0028C214.28 25.7447 214.121 26.5396 214.121 27.3875Z" fill="white"/>
<mask id="mask0_4153_7" style="mask-type:luminance" maskUnits="userSpaceOnUse" x="1" y="0" width="45" height="51">
<path d="M45.2581 0H1.42725V50.2063H45.2581V0Z" fill="white"/>
</mask>
<g mask="url(#mask0_4153_7)">
<path d="M21.7212 42.4841C21.6933 41.2409 21.514 35.4951 21.3426 34.2678C21.243 33.5626 20.9282 32.941 20.5218 32.3592C19.6492 31.108 17.3261 29.4544 17.2185 29.3787C14.7003 27.6852 11.4369 27.3705 11.4369 27.3705C11.0503 27.3824 10.6678 27.3824 10.2893 27.4581C9.00225 27.7131 8.32088 28.4622 8.12563 29.8369C7.55184 29.1795 7.9782 27.9522 9.18554 26.7688C7.75506 26.3225 6.13332 26.6692 4.96582 27.7131C5.07739 27.3744 5.23677 27.1553 5.42804 26.96C6.04964 26.3105 6.85453 26.0396 7.7192 25.9001C8.21728 25.8204 8.71535 25.8284 9.30508 25.8364C8.43643 24.8601 7.94234 23.7923 7.82678 22.5251C8.06187 22.8758 8.28501 23.1946 8.50018 23.5213C9.59596 25.2028 11.0982 26.2468 13.1224 26.5297C14.2341 26.6851 15.3179 26.9919 16.3698 27.3983C16.4137 27.4143 16.4535 27.4501 16.5133 27.4103C16.1068 26.717 15.8837 25.932 15.3976 25.2785C14.9593 24.6888 14.4293 24.2226 13.7958 23.856C13.3256 23.5851 12.8315 23.3619 12.3812 23.0551C11.8234 22.6726 11.4568 22.1586 11.2575 21.4174C11.915 22.3299 12.8633 22.6287 13.7639 23.0033C14.0747 23.1308 14.3815 23.2663 14.7003 23.4018C14.517 22.2901 14.4333 21.1823 14.7441 20.0786C14.8955 21.9075 15.4255 23.597 16.5451 25.1231C16.7643 24.3541 17.2066 23.7285 17.4975 23.0312C17.6967 22.557 17.8043 22.0749 17.6569 21.4812C18.0274 21.9354 18.1031 22.3817 17.9995 22.8559C17.88 23.4018 17.7326 23.9437 17.5891 24.4856C17.4616 24.9677 17.4377 25.4578 17.4377 25.9519C17.4377 26.2269 17.5293 26.4739 17.6648 26.709C18.6411 28.3865 20.0676 29.5222 21.8885 30.1796C22.0121 30.2234 22.1077 30.2633 22.1196 30.0641C22.2671 26.9839 21.9722 23.9716 20.7529 21.0987C20.5577 20.6364 20.2907 20.2101 19.9799 19.8116C19.0196 18.5724 17.7684 18.2178 16.3061 18.7836C16.1586 18.8394 16.0152 18.9031 15.8678 18.9589C15.8598 18.947 15.8478 18.939 15.8359 18.927C16.3977 18.2178 17.1548 17.8791 18.0354 17.7635C18.0832 17.7595 18.135 17.7595 18.2227 17.7556C18.0673 17.5404 17.8601 17.4408 17.6569 17.3412C17.0113 17.0224 16.314 16.8311 15.6486 16.5721C15.1704 16.3848 14.7003 16.1856 14.2898 15.8748C14.0348 15.6835 13.8077 15.4724 13.7001 15.1616C13.7121 15.1456 13.724 15.1297 13.736 15.1137C14.4492 15.556 15.2541 15.7513 16.0511 15.9784C16.8121 16.1936 17.5612 16.4167 18.2426 16.8351C18.2625 16.8431 18.2984 16.859 18.3024 16.855C18.3223 16.8271 18.3063 16.8112 18.2745 16.8072C18.1549 16.0661 18.0593 15.3289 18.1509 14.5758C18.1709 14.4005 18.2027 14.2292 18.2466 14.0538C18.3462 15.8748 19.3304 17.2256 20.5577 18.4489C20.9641 18.8513 21.3705 19.2498 21.773 19.6562C22.2392 20.1264 22.6775 20.6165 22.9684 21.2421C22.9963 20.9193 23.0202 20.5926 23.052 20.2698C23.1277 19.4251 23.2114 18.5844 23.2752 17.7396C23.3867 16.2892 22.9405 15.0062 22.0917 13.8426C21.4064 12.9023 20.6294 12.0655 19.5097 11.5993C19.7767 11.5276 20.203 11.5754 20.5537 11.7388C21.7252 12.2886 22.7492 13.0138 23.4067 14.1694C23.4146 14.1813 23.4346 14.1853 23.5103 14.2212C23.5541 11.7109 23.2752 9.29619 22.2432 7.00104C22.3428 6.96917 22.4065 7.09668 22.4783 7.17637C23.1078 7.83782 23.4385 8.66662 23.7215 9.51136C23.9087 10.0652 24.0641 10.635 24.2514 11.2606C25.0722 10.0772 25.7895 8.85788 27.0964 8.20042C27.1403 8.18049 27.204 8.19643 27.3395 8.19643C25.3273 10.0373 24.4228 12.2568 24.6897 14.9783C25.0085 14.4882 25.3512 14.0777 25.7377 13.7072C26.4589 13.0138 27.2359 12.4002 28.1763 12.0177C28.6265 11.8344 29.0927 11.7149 29.6426 11.8583C29.3796 11.9579 29.1645 12.0336 28.9573 12.1213C27.6941 12.6632 26.7617 13.5677 26.0724 14.7352C25.128 16.333 24.6977 18.0664 24.7057 19.983C25.5464 19.2338 26.5346 18.923 27.5427 18.6561C28.0767 18.5126 28.6106 18.3811 29.1405 18.2218C30.0451 17.9508 30.834 17.4846 31.4835 16.7913C32.2127 16.0143 32.4837 15.1018 32.2725 14.0498C32.2605 13.9941 32.2525 13.9383 32.2366 13.8705C32.8702 14.3646 32.91 15.9465 32.3362 17.0383C32.7945 17.2415 35.6235 16.2095 37.1935 15.2612C37.0182 15.6198 36.7472 15.8549 36.4523 16.0661C35.4562 16.7793 34.3325 17.2256 33.1929 17.652C32.4 17.9468 31.5911 18.1978 30.7224 18.4409C31.5871 18.6561 32.4279 18.7995 33.1092 19.4928C32.659 19.4132 32.2884 19.3056 31.9019 19.2737C29.8379 19.1223 27.9213 19.5486 26.1919 20.7042C25.2755 21.3178 24.7415 22.1865 24.5423 23.2623C24.2275 24.9518 24.1877 26.6453 24.4746 28.3427C24.4825 28.3985 24.5024 28.4543 24.5144 28.5061C24.5463 28.5101 24.5702 28.518 24.5781 28.5101C25.4906 27.5737 26.6183 26.9361 27.73 26.2827C28.3994 25.8882 29.0967 25.5296 29.6625 24.9837C30.6188 24.0592 30.7424 22.9356 30.0251 21.7003C30.3001 21.7362 30.4913 21.8836 30.6547 22.0589C31.1289 22.569 31.4476 23.1627 31.5034 23.868C31.5234 24.131 31.6708 24.2067 31.8899 24.2067C32.2486 24.2027 32.5554 24.0353 32.8463 23.848C33.9819 23.1149 34.6393 22.3538 35.3685 20.9512C35.7391 22.0151 35.0059 23.3938 33.2885 24.8004C34.46 24.7087 35.5518 24.8322 36.6038 25.2307C37.6437 25.6252 38.5562 26.199 39.2137 27.1234C37.6876 26.2309 36.034 25.932 34.3006 25.9997C32.4319 26.0715 30.6467 26.4938 29.033 27.4741C26.9888 28.7173 25.7895 30.5661 25.4388 32.9051C25.0244 35.6744 24.8491 39.663 25.136 42.4642C24.5104 42.8826 22.9166 43.6795 21.7212 42.4841Z" fill="white"/>
<path d="M31.9537 4.30748C30.7783 4.83743 30.2284 5.9332 29.547 7.00108C29.3996 6.45519 29.4036 5.97305 29.4793 5.50685C29.8817 3.00849 31.9737 1.92068 34.0656 1.95655C34.1891 1.96053 34.2808 1.96452 34.2409 2.13585C33.9381 3.45078 33.6074 4.75774 32.8025 5.87742C32.2805 6.60262 31.6031 7.11664 30.7265 7.35173C30.4037 7.43939 30.3758 7.4115 30.4356 7.08874C30.6189 6.0886 31.1409 5.26379 31.7784 4.49874C31.8342 4.43498 31.894 4.37123 31.9537 4.30748Z" fill="white"/>
<path d="M42.1662 18.154C41.0147 18.2257 40.1699 18.9549 39.2256 19.5884C39.3611 18.8553 39.6639 18.2576 40.1381 17.7595C41.2737 16.5681 42.6563 16.317 44.2024 16.7554C44.4176 16.8191 44.6367 16.8749 44.8439 16.9825C44.9754 17.0502 44.9834 17.11 44.8997 17.2295C44.2741 18.0783 43.6326 18.919 42.7799 19.5526C42.0347 20.1024 41.202 20.4371 40.2456 20.3495C40.1181 20.3375 39.9627 20.3614 39.895 20.2379C39.8193 20.0945 39.9508 19.9749 40.0305 19.8713C40.5764 19.1461 41.3016 18.652 42.1105 18.2655C42.1383 18.2536 42.1623 18.2376 42.1862 18.2217C42.1782 18.2018 42.1702 18.1779 42.1662 18.154Z" fill="white"/>
<path d="M21.494 5.04459C21.0956 4.23173 20.7489 3.37902 20.0476 2.74945C19.96 2.66975 19.8603 2.606 19.685 2.55021C20.0516 3.00446 20.2827 3.47465 20.4859 3.96077C20.6453 4.3433 20.7569 4.73777 20.7649 5.16014C20.7688 5.39125 20.6772 5.40321 20.4979 5.3275C19.8046 5.03662 19.2587 4.57839 18.8722 3.92889C18.2386 2.86898 18.0792 1.68157 17.9159 0.494147C17.884 0.274992 18.0952 0.354685 18.1669 0.362654C18.924 0.434377 19.6053 0.685409 20.2389 1.13169C21.4263 1.96447 22.0001 3.50254 21.5976 4.89716C21.5857 4.94896 21.5777 5.00873 21.494 5.04459Z" fill="white"/>
<path d="M10.5046 18.1579C10.9111 18.5126 11.3494 18.8234 11.696 19.2418C11.9431 19.5366 12.1742 19.8395 12.3376 20.1901C12.4531 20.4332 12.3694 20.477 12.1423 20.469C11.0904 20.4292 10.2576 19.951 9.57224 19.1939C8.96658 18.5245 8.52827 17.7435 8.1059 16.9546C7.99034 16.7354 8.05808 16.6637 8.26528 16.6199C9.3491 16.3848 10.405 16.4127 11.3813 16.9984C12.3734 17.5921 13.0189 18.7238 13.0429 19.8793C12.2658 19.17 11.5845 18.3612 10.5046 18.1579Z" fill="white"/>
<path d="M4.86999 17.7514C4.64287 18.8073 5.08915 19.7437 5.45573 20.7598C4.96961 20.5526 4.61896 20.2856 4.32012 19.943C3.25224 18.7077 3.11676 17.07 3.9615 15.6754C4.08502 15.4762 4.22847 15.2889 4.35598 15.0897C4.43965 14.9582 4.51536 14.9422 4.62295 15.0737C5.48761 16.1257 6.32837 17.1896 6.5276 18.6041C6.60729 19.1659 6.50369 19.6959 6.29251 20.2179C6.2168 20.4012 6.13312 20.3773 6.01757 20.2577C5.5673 19.7955 5.29635 19.2337 5.1011 18.628C5.01344 18.3332 4.9457 18.0423 4.86999 17.7514Z" fill="white"/>
<path d="M4.84248 27.3107C4.20893 27.9243 3.57139 28.5379 3.18488 29.3468C3.16496 29.3867 3.1809 29.4424 3.1809 29.5102C3.35622 29.4823 3.42794 29.3468 3.51959 29.2392C3.95391 28.7372 4.44004 28.2949 5.0457 28C5.1493 27.9482 5.27282 27.8566 5.37642 27.9243C5.48401 27.996 5.42424 28.1435 5.41627 28.255C5.32462 29.4225 4.68708 30.2633 3.79054 30.9446C3.19285 31.3989 2.52343 31.7376 1.858 32.0803C1.67869 32.1719 1.59501 32.14 1.55118 31.9368C1.28421 30.5741 1.41571 29.307 2.44772 28.263C3.03745 27.6693 3.76664 27.3465 4.59942 27.2549C4.66716 27.2469 4.75084 27.219 4.84248 27.3107Z" fill="white"/>
<path d="M11.8552 12.6312C11.4249 12.3563 11.0344 12.0256 10.5801 11.7865C10.1378 11.5554 9.70352 11.3083 9.10184 11.3362C9.65172 11.6072 10.1139 11.8781 10.5243 12.2288C10.8232 12.4878 11.1021 12.7587 11.3014 13.1094C11.393 13.2688 11.3571 13.3285 11.1778 13.3564C10.3809 13.48 9.64375 13.2927 8.97433 12.8743C7.9702 12.2527 7.27688 11.3322 6.60348 10.3919C6.54371 10.3082 6.53972 10.2484 6.63934 10.2086C7.70323 9.77027 8.79104 9.6069 9.88282 10.0811C10.9746 10.5513 11.656 11.388 11.903 12.5595C11.907 12.5675 11.903 12.5794 11.899 12.5874C11.8791 12.6033 11.8672 12.6193 11.8552 12.6312Z" fill="white"/>
<path d="M39.8391 25.3063C40.7915 25.1748 41.7637 25.139 42.6403 24.5293C42.4451 24.4815 42.3375 24.5692 42.2219 24.5771C42.1064 24.5851 41.9908 24.625 41.8753 24.6449C41.2577 24.7604 40.644 24.7764 40.0304 24.625C39.7833 24.5652 39.7515 24.4935 39.9308 24.2863C40.5285 23.6049 41.2895 23.2742 42.1741 23.1746C43.1583 23.063 44.1146 23.2463 45.0749 23.4256C45.2144 23.4535 45.318 23.4893 45.2303 23.6766C44.6605 24.864 43.8317 25.7526 42.4809 25.9957C41.6282 26.1511 40.8154 25.9917 40.0702 25.5335C39.9826 25.4817 39.8909 25.4378 39.8391 25.3063Z" fill="white"/>
<path d="M38.0543 15.034C38.409 14.5997 38.7397 14.2411 39.0226 13.8426C39.3055 13.4441 39.5685 13.0218 39.6283 12.44C39.3613 12.7867 39.1422 13.0935 38.8991 13.3804C38.5644 13.7789 38.2058 14.1574 37.7196 14.3805C37.5563 14.4562 37.5045 14.4244 37.4965 14.2371C37.4487 13.4043 37.7276 12.6831 38.2337 12.0495C38.9031 11.2088 39.8076 10.6589 40.7161 10.121C40.8237 10.0572 40.8834 10.0612 40.9273 10.1967C41.4174 11.7188 41.1942 13.4362 39.6681 14.4762C39.1979 14.787 38.6839 14.9583 38.0543 15.034Z" fill="white"/>
<path d="M40.5524 29.8926C40.6918 29.538 40.6161 29.2591 40.5444 28.9881C40.4129 28.4821 40.2535 27.988 40.0105 27.5218C39.9746 27.45 39.883 27.3544 39.9786 27.2867C40.0463 27.2389 40.122 27.3225 40.1898 27.3584C41.7318 28.1991 42.3136 29.9325 41.6003 31.5343C41.4688 31.8331 41.3174 32.116 41.1341 32.387C41.0544 32.5065 40.9907 32.5304 40.8871 32.4149C40.134 31.5781 39.3968 30.7254 39.0821 29.6137C38.9107 29.016 38.9147 28.4143 39.1259 27.8166C39.2056 27.5935 39.2972 27.5895 39.4486 27.7489C39.9148 28.239 40.1938 28.8287 40.4089 29.4583C40.4528 29.5778 40.4886 29.6974 40.5524 29.8926Z" fill="white"/>
<path d="M25.4747 4.72977C25.8214 3.95277 26.3234 3.23155 26.2238 2.33102C26.0246 2.81316 25.8134 3.28733 25.5146 3.72166C25.3631 3.94081 25.1759 4.13207 24.9846 4.31138C24.8611 4.42694 24.7933 4.411 24.7455 4.24364C24.4985 3.40289 24.6858 2.62987 25.1161 1.8967C25.5265 1.1954 26.0923 0.621619 26.686 0.0717401C26.8016 -0.0318602 26.8614 -0.0199063 26.9331 0.0996325C27.9093 1.74528 27.5985 3.7097 25.8453 4.64609C25.7417 4.70188 25.6381 4.76563 25.4747 4.72977Z" fill="white"/>
<path d="M15.9912 6.93722C15.27 6.47899 14.5607 6.0088 13.6721 5.98888C14.1822 6.26382 14.7002 6.51485 15.1225 6.92128C15.2142 7.00895 15.3138 7.09262 15.3895 7.19622C15.4692 7.29982 15.6286 7.40741 15.5608 7.53492C15.5011 7.64649 15.3178 7.6425 15.1823 7.65047C14.3097 7.71821 13.5606 7.40342 12.8951 6.86948C12.3692 6.4511 11.9229 5.95302 11.5045 5.43103C11.4089 5.31149 11.3411 5.19992 11.5443 5.11226C12.5126 4.70185 13.4888 4.52652 14.485 5.00866C15.2261 5.36728 15.7282 5.95302 16.0071 6.73002C16.0151 6.78182 16.051 6.83761 15.9912 6.93722Z" fill="white"/>
<path d="M7.80282 29.8728C7.8586 30.6378 7.90243 31.3949 8.35668 32.0643C8.33277 31.8731 8.31683 31.6778 8.28894 31.4866C8.22519 31.0323 8.24511 30.586 8.34871 30.1398C8.37262 30.0402 8.3766 29.9007 8.49614 29.8728C8.59974 29.8449 8.65951 29.9644 8.72326 30.0322C9.38471 30.7096 9.50027 31.5503 9.4405 32.4389C9.40464 32.9689 9.26916 33.4829 9.14564 33.9969C9.1018 34.1682 9.05399 34.3515 8.79897 34.1881C7.95025 33.6502 7.30075 32.9649 7.16528 31.9249C7.06566 31.1598 7.28083 30.4705 7.80282 29.8728Z" fill="white"/>
<path d="M35.1413 9.10491C34.4519 9.28023 33.9897 9.77433 33.4598 10.2724C33.3801 9.83011 33.5275 9.48743 33.6948 9.17265C34.3922 7.84577 35.719 7.51903 36.9981 7.82186C37.1017 7.84577 37.1774 7.86968 37.1495 8.01312C36.9662 9.00529 35.5118 10.4756 34.4918 10.6868C34.3085 10.7227 34.0654 10.8024 33.9618 10.6629C33.8582 10.5274 34.0375 10.3401 34.1292 10.1927C34.3244 9.87394 34.5794 9.599 34.8703 9.35993C34.958 9.28023 35.0456 9.19257 35.1413 9.10491Z" fill="white"/>
<path d="M16.6764 13.6553C16.5409 13.2568 16.4373 12.8464 16.2301 12.4798C16.1465 12.3284 16.1066 12.0574 15.8954 12.1092C15.7998 12.1331 15.9313 12.4041 15.9831 12.5555C16.1106 12.9141 16.1743 13.2727 16.1544 13.6553C16.1425 13.8465 16.0827 13.8784 15.9233 13.7828C15.4571 13.5078 15.1224 13.1134 14.9272 12.6153C14.6323 11.8582 14.5885 11.0653 14.6044 10.2643C14.6084 10.1329 14.6522 10.0571 14.8076 10.101C15.8197 10.3839 16.5887 10.9417 16.8956 11.9897C17.039 12.4918 17.0031 13.0018 16.8238 13.4999C16.7959 13.5556 16.78 13.6314 16.6764 13.6553Z" fill="white"/>
<path d="M4.02961 23.8599C4.35635 24.5253 4.98193 24.872 5.62346 25.2904C4.81856 25.4458 4.15313 25.2784 3.56739 24.8122C2.89797 24.2743 2.64296 23.5372 2.5792 22.7123C2.56327 22.4932 2.60311 22.3856 2.87008 22.4493C3.71084 22.6446 4.52769 22.8877 5.1971 23.4734C5.49994 23.7404 5.70315 24.0711 5.84261 24.4456C5.87449 24.5333 5.93824 24.6449 5.87449 24.7286C5.79878 24.8282 5.68721 24.7405 5.59955 24.7206C5.00186 24.5692 4.49979 24.2464 4.02961 23.8599Z" fill="white"/>
<path d="M19.8881 8.94153C19.8204 9.69463 20.2427 10.2445 20.5177 10.8542C19.7606 10.6868 19.0314 9.87792 18.9238 9.08896C18.8401 8.44744 18.9557 7.83779 19.2705 7.26799C19.3581 7.10462 19.4299 7.10462 19.5534 7.22416C20.0395 7.70231 20.5296 8.16851 20.8564 8.77418C21.1154 9.25632 21.219 9.76635 21.1193 10.3083C21.1034 10.3919 21.1034 10.4995 21.0038 10.5274C20.9161 10.5513 20.8723 10.4597 20.8125 10.4079C20.3663 10.0214 20.1272 9.51133 19.8881 8.94153Z" fill="white"/>
<path d="M26.4907 24.1069C26.1281 24.3261 26.0125 24.7246 25.7974 25.0553C25.5344 24.7445 25.7017 23.7961 26.0603 23.3738C26.4468 22.9155 26.9489 22.7083 27.5187 22.6167C27.6343 22.5968 27.7498 22.5968 27.7219 22.7681C27.5904 23.573 27.4868 24.3938 26.8055 24.9716C26.6341 25.119 26.415 25.3382 26.2237 25.2147C26.0643 25.1111 26.2118 24.8401 26.2835 24.6489C26.3512 24.4656 26.4229 24.2863 26.4907 24.1069ZM26.5345 23.9755L26.5226 23.9914L26.5385 23.9954L26.5345 23.9755Z" fill="white"/>
<path d="M20.1592 25.9041C20.2628 26.1631 20.3585 26.3822 20.4461 26.6093C20.5019 26.7528 20.5816 26.948 20.4541 27.0437C20.3385 27.1353 20.1792 26.9919 20.0556 26.9201C19.7369 26.7368 19.5097 26.4579 19.3623 26.1352C19.1432 25.661 19.0196 25.1549 18.9638 24.633C18.9479 24.4656 18.9957 24.4138 19.1511 24.4337C20.2947 24.5772 21.1434 25.3701 20.9841 26.685C20.9761 26.7448 20.9761 26.8165 20.9083 26.8285C20.8326 26.8444 20.8167 26.7647 20.7888 26.7169C20.6613 26.5057 20.5418 26.2945 20.4143 26.0834C20.3704 26.0037 20.3226 25.916 20.1592 25.9041ZM20.0955 25.8124L20.0795 25.8044V25.8204L20.0955 25.8124Z" fill="white"/>
<path d="M35.942 18.4209C35.4121 18.3213 34.9578 18.5644 34.4199 18.7118C34.5992 18.2575 34.8901 17.9707 35.2726 17.7913C36.0536 17.4248 36.7788 17.5762 37.4682 18.0543C37.5718 18.1261 37.5997 18.1978 37.4921 18.2854C36.9581 18.7237 36.4282 19.1621 35.7269 19.3135C35.44 19.3732 35.1611 19.3653 34.8821 19.2975C34.7945 19.2776 34.6949 19.2537 34.671 19.1581C34.647 19.0585 34.7427 19.0067 34.8064 18.9509C35.0216 18.7755 35.2726 18.66 35.5316 18.5683C35.6711 18.5165 35.8066 18.4687 35.942 18.4209Z" fill="white"/>
<path d="M36.4243 23.3339C36.5996 22.7522 37.4045 22.2541 38.1536 22.2979C38.6079 22.3258 39.0143 22.4971 39.3929 22.7322C39.4925 22.792 39.5722 22.8677 39.4367 22.9833C38.8868 23.4495 38.321 23.8878 37.5878 24.0312C37.3209 24.083 37.0579 24.0631 36.8029 23.9914C36.7192 23.9675 36.6116 23.9476 36.5877 23.8559C36.5678 23.7603 36.6674 23.7085 36.7351 23.6567C37.0818 23.3817 37.4922 23.2423 37.9823 23.1108C37.5281 23.0231 37.1734 23.1267 36.8228 23.2582C36.7032 23.302 36.5957 23.3817 36.4642 23.3857C36.4522 23.3618 36.4403 23.3499 36.4243 23.3339Z" fill="white"/>
<path d="M22.0358 17.3052C21.7968 16.9426 21.6175 16.5321 21.1752 16.2492C21.3664 16.5999 21.5657 16.8669 21.6334 17.1976C21.6573 17.3012 21.7171 17.4327 21.6254 17.5044C21.5378 17.5761 21.4182 17.4924 21.3226 17.4486C20.8245 17.2255 20.5376 16.8071 20.3304 16.3249C20.1671 15.9424 20.0834 15.54 20.0077 15.1335C19.9878 15.022 20.0037 14.9622 20.1272 14.9662C21.4023 15.01 22.3307 15.9783 22.1036 17.2414C22.1036 17.2534 22.0797 17.2653 22.0358 17.3052Z" fill="white"/>
<path d="M27.8616 16.345C27.4472 16.5761 27.236 16.9467 26.9292 17.3173C26.8455 16.7634 26.981 16.3211 27.2758 15.9306C27.7261 15.3369 28.3557 15.1416 29.0769 15.1735C29.2084 15.1775 29.2921 15.2134 29.2442 15.3648C29.0131 16.082 28.7661 16.7873 28.1206 17.2575C27.8974 17.4209 27.5667 17.6559 27.3834 17.4966C27.1842 17.3212 27.491 17.0343 27.5946 16.8032C27.6584 16.6518 27.8138 16.5562 27.8616 16.345Z" fill="white"/>
<path d="M34.6155 13.9103C34.3366 14.0259 34.229 14.2889 34.0935 14.5279C34.0019 14.6873 33.9261 14.8547 33.8305 15.034C33.5436 14.4323 33.7986 13.6433 34.2609 13.2449C34.5517 12.9939 34.9024 12.8663 35.2729 12.7867C35.4204 12.7548 35.5359 12.7827 35.508 12.9739C35.4005 13.7151 35.3008 14.4602 34.6792 14.9941C34.6115 15.0539 34.5438 15.1017 34.4641 15.1376C34.3844 15.1734 34.3047 15.1974 34.2051 15.2372C34.1413 14.7232 34.3684 14.3128 34.6155 13.9103Z" fill="white"/>
<path d="M33.0492 21.7161C32.595 22.0548 32.4396 22.5091 32.2204 22.9354C31.8459 22.1026 32.3559 21.0746 33.2883 20.7598C33.9139 20.5486 33.9378 20.5606 33.8501 21.1981C33.7864 21.6763 33.6668 22.1425 33.372 22.5409C33.2285 22.7362 33.0572 22.8916 32.838 22.9912C32.7703 23.0231 32.6946 23.0948 32.6229 23.035C32.5551 22.9793 32.583 22.8876 32.595 22.8119C32.6428 22.4334 32.8022 22.0987 33.0492 21.7161Z" fill="white"/>
<path d="M24.6219 8.27204C24.4626 8.52706 24.4506 8.79005 24.3749 9.09288C24.096 8.69043 24.0083 8.29197 24.1119 7.88554C24.2593 7.2998 24.6419 6.89336 25.1997 6.6503C25.3471 6.58655 25.4229 6.62639 25.4428 6.78179C25.5145 7.40738 25.5783 8.03297 25.2635 8.62269C25.2475 8.65058 25.2356 8.67449 25.2196 8.6984C25.116 8.88169 24.9527 9.10882 24.7773 9.07295C24.5781 9.03311 24.6897 8.75418 24.6737 8.57886C24.6618 8.4912 24.7016 8.40354 24.6219 8.27204Z" fill="white"/>
<path d="M27.9891 9.92568C27.5827 10.0492 27.3237 10.372 27.0208 10.6708C26.9252 10.5274 26.9929 10.4078 27.0168 10.2962C27.2121 9.43158 28.1206 8.94944 28.9534 9.1168C29.053 9.13672 29.1367 9.17657 29.0888 9.28814C28.798 9.97349 28.4633 10.631 27.7062 10.9298C27.5827 10.9776 27.4073 11.0772 27.3237 10.9657C27.236 10.8501 27.3555 10.6947 27.4432 10.5752C27.6026 10.3401 27.7859 10.1249 27.9891 9.92568Z" fill="white"/>
<path d="M36.4641 23.3776C36.4363 23.4094 36.3966 23.4332 36.3728 23.3974C36.341 23.3538 36.3966 23.3458 36.4244 23.33C36.4403 23.3498 36.4522 23.3617 36.4641 23.3776Z" fill="white"/>
<path d="M15.8724 18.9592C15.8522 18.9673 15.8159 18.9834 15.8119 18.9794C15.7917 18.9511 15.8119 18.935 15.8401 18.931C15.8482 18.939 15.8603 18.9471 15.8724 18.9592Z" fill="white"/>
<path d="M13.7006 15.1582C13.6925 15.138 13.6804 15.1179 13.6724 15.0977C13.6966 15.1017 13.7167 15.1058 13.7409 15.1098C13.7248 15.1259 13.7127 15.1421 13.7006 15.1582Z" fill="white"/>
<path d="M11.8953 12.5914C11.8993 12.6116 11.9074 12.6358 11.9155 12.6559C11.8953 12.6479 11.8751 12.6398 11.855 12.6318C11.8671 12.6197 11.8792 12.6035 11.8953 12.5914Z" fill="white"/>
<path d="M18.2749 16.7993C18.3032 16.8033 18.3233 16.8194 18.3032 16.8476C18.2991 16.8517 18.2628 16.8355 18.2427 16.8275C18.2548 16.8194 18.2669 16.8073 18.2749 16.7993Z" fill="white"/>
<path d="M26.5346 23.9755L26.5386 23.9958L26.5225 23.9917L26.5346 23.9755Z" fill="white"/>
<path d="M20.0966 25.8131L20.0796 25.8174V25.8004L20.0966 25.8131Z" fill="white"/>
</g>
<path d="M23.992 31.1119C23.9283 31.9766 24.1952 39.902 24.0637 40.7587C24.0159 41.0695 24.1115 41.2408 24.3705 41.3923C25.9564 42.3286 27.6379 42.488 29.3912 41.978C30.8814 41.5437 32.3637 41.0854 33.9177 40.9181C35.651 40.7308 37.3126 40.9978 38.9264 41.6194C39.1894 41.719 39.4803 41.7867 39.7632 41.8027C40.7872 41.8664 41.8192 41.8864 42.8154 41.5835C43.2258 41.46 43.6123 41.2448 43.9829 41.0297C44.3216 40.8344 44.5806 40.8145 44.7838 41.0576C44.975 41.2887 44.9232 41.5875 44.6324 41.8266C43.9869 42.3645 43.2059 42.5877 42.389 42.7231C42.1539 42.763 41.9188 42.7949 41.5722 42.8506C41.7674 42.9582 41.867 43.022 41.9746 43.0698C43.0186 43.524 44.0546 43.9863 45.2062 44.1177C45.513 44.1496 45.6883 44.3927 45.6485 44.6676C45.6006 44.9744 45.3895 45.1498 45.0946 45.1059C44.5527 45.0223 43.9869 44.9585 43.4848 44.7513C42.146 44.2054 40.8151 43.6316 39.5281 42.9901C36.9859 41.723 34.372 41.6074 31.6704 42.3805C31.3954 42.4601 31.3277 42.5637 31.4353 42.8347C31.8417 43.8627 32.6665 44.3927 33.6906 44.6517C34.2684 44.7991 34.87 44.8549 35.4598 44.9306C36.6312 45.082 36.7787 45.1976 37.0935 46.3332C37.0974 46.3452 37.0935 46.3531 37.0895 46.397C37.0417 46.393 36.9819 46.4049 36.942 46.381C36.169 45.9945 35.3283 45.9188 34.4835 45.8391C33.6707 45.7634 32.8976 45.5442 32.1884 45.1458C31.3476 44.6756 30.738 44.0062 30.4391 43.0897C30.3714 42.8785 30.3037 42.755 30.0327 42.8467C28.2436 43.4523 26.4625 43.4603 24.7092 42.7191C24.6734 42.7032 24.6216 42.7112 24.514 42.7072C24.5738 42.8387 24.6096 42.9383 24.6614 43.0299C25.8608 45.1259 27.7136 46.3571 30.0486 46.9588C30.8695 47.17 31.7023 47.3732 32.5032 47.6441C33.6986 48.0466 34.7107 48.7559 35.6072 49.6205C36.5197 50.4971 37.5517 51.1666 38.7869 51.5292C39.1934 51.6487 39.3448 51.8918 39.2491 52.1906C39.1535 52.4934 38.8626 52.5891 38.4522 52.4775C37.0974 52.1029 35.9658 51.3698 34.9657 50.4214C34.7625 50.2302 34.5513 50.0548 34.3401 49.8676C34.3162 49.8835 34.2923 49.8994 34.2684 49.9154C34.368 50.3377 34.4835 50.7561 34.5672 51.1825C34.7824 52.2583 34.7784 53.3382 34.5313 54.41C34.4437 54.7886 34.1926 55.0037 33.9018 54.948C33.575 54.8842 33.4236 54.6133 33.5192 54.1989C33.9177 52.4456 33.575 50.792 32.8299 49.1902C32.6865 48.8794 32.4753 48.6762 32.1406 48.5845C31.244 48.3415 30.3435 48.0984 29.447 47.8434C27.0602 47.166 25.1595 45.8431 23.8725 43.7312C23.8326 43.6675 23.7768 43.6117 23.6732 43.4842C23.6453 43.6635 23.6135 43.7671 23.6175 43.8667C23.6493 45.0183 23.6812 46.1658 23.7171 47.3174C23.729 47.6441 23.8884 47.8633 24.1554 48.0745C26.1756 49.6444 27.8093 51.5092 28.7297 53.908C28.7337 53.9199 28.7417 53.9279 28.7417 53.9398C28.9449 55.2189 29.9769 55.5576 31.0289 55.8206C31.4393 55.9242 31.8975 55.8843 32.3278 55.8764C32.6904 55.8684 32.9614 56.0198 32.9973 56.3107C33.0331 56.5896 32.8339 56.8168 32.4872 56.8805C31.5827 57.0399 30.726 56.8606 29.8853 56.5418C29.8135 56.5139 29.7378 56.49 29.5864 56.4382C29.6342 56.6135 29.6581 56.7371 29.702 56.8526C30.1443 57.9364 30.6503 58.9844 31.4313 59.8809C31.6465 60.128 31.6226 60.4149 31.3994 60.6061C31.1843 60.7894 30.8575 60.7934 30.6623 60.5344C30.224 59.9447 29.7817 59.347 29.4231 58.7055C28.7098 57.4304 28.3074 56.0398 27.877 54.6531C27.2395 52.605 25.9285 50.9872 24.3466 49.5568C24.3227 49.5368 24.2869 49.5329 24.1912 49.493C24.2151 49.6643 24.2311 49.7958 24.255 49.9313C24.4702 51.0749 24.7172 52.2105 24.8925 53.3621C25.028 54.2546 24.9045 55.1432 24.6495 56.0079C24.3267 57.0837 24.6017 58.0759 25.4902 58.7652C26.4864 59.5462 26.9088 60.5663 26.9167 61.7856C26.9167 61.8732 26.9167 61.9689 26.8968 62.0565C26.845 62.3355 26.6816 62.5028 26.3828 62.5108C26.1078 62.5148 25.9126 62.3076 25.8767 62.0087C25.8289 61.5943 25.8329 61.164 25.7054 60.7775C25.5938 60.4348 25.3587 60.12 25.1316 59.8331C24.9682 59.6219 24.7172 59.4785 24.522 59.2872C24.3387 59.1039 24.1793 58.8967 23.9681 58.6497C23.9362 58.8649 23.9123 59.0322 23.8844 59.1996C23.6613 60.6101 23.6772 62.0127 24.0438 63.4033C24.0478 63.4153 24.0478 63.4233 24.0518 63.4352C24.1514 63.8536 24.0319 64.1246 23.7131 64.2003C23.4023 64.276 23.1513 64.0927 23.0477 63.6743C22.956 63.2997 22.8683 62.9252 22.8126 62.5466C22.5735 60.9129 22.7368 59.3032 23.1114 57.7053C23.3465 56.7171 23.6214 55.7409 23.8446 54.7527C23.9163 54.43 23.8924 54.0873 23.9163 53.7526C23.8605 53.7127 23.8047 53.6689 23.745 53.629C23.7091 53.7207 23.7011 53.8283 23.6374 53.9C23.2349 54.3742 22.8524 54.8762 22.4021 55.3066C21.7048 55.972 21.2068 56.7012 21.2346 57.7013C21.2426 58.0161 21.0155 58.2353 20.7326 58.2432C20.4497 58.2472 20.2265 58.044 20.2106 57.7252C20.1548 56.6853 20.5453 55.8047 21.2346 55.0356C21.4379 54.8085 21.673 54.6053 21.9001 54.3941C22.6492 53.6968 23.1552 52.8401 23.5139 51.8957C23.5497 51.8041 23.5856 51.6925 23.5657 51.6009C23.3824 50.7641 23.1871 49.9313 22.9879 49.0706C22.8962 49.0985 22.8325 49.1025 22.7966 49.1304C21.0753 50.5609 19.6448 52.2065 18.8678 54.3184C18.4853 55.3584 18.1864 56.4263 17.7959 57.4623C17.4214 58.4624 16.9153 59.4028 16.2419 60.2475C16.1782 60.3272 16.1144 60.4069 16.0427 60.4826C15.7677 60.7775 15.4689 60.8253 15.2298 60.6141C14.9868 60.4029 15.0027 60.128 15.2736 59.8092C16.0666 58.8768 16.5686 57.789 17.0109 56.6693C17.0309 56.6215 17.0229 56.5657 17.0309 56.4661C16.9153 56.502 16.8316 56.5219 16.7559 56.5538C15.9271 56.8725 15.0784 57.0479 14.1858 56.9004C13.8033 56.8367 13.6001 56.6175 13.6439 56.3266C13.6878 56.0158 13.9547 55.8565 14.3492 55.9003C15.5326 56.0437 16.5487 55.6572 17.4652 54.9639C17.5568 54.8962 17.6325 54.7726 17.6644 54.6611C18.3697 52.2265 19.8799 50.3258 21.7606 48.6642C21.8483 48.5885 21.924 48.4969 22.0236 48.4451C22.6572 48.1183 22.7568 47.6322 22.6412 46.9628C22.5137 46.2216 22.5575 45.4566 22.5296 44.6995C22.5257 44.572 22.5296 44.4405 22.5296 44.313C22.4898 44.2891 22.45 44.2652 22.4101 44.2453C22.3742 44.313 22.3503 44.3887 22.3025 44.4485C20.8083 46.4408 18.7602 47.5525 16.3375 48.0825C15.6641 48.2299 15.0107 48.449 14.3612 48.6722C14.1858 48.7319 14.0025 48.8953 13.9189 49.0547C13.0741 50.7083 12.7115 52.4337 13.1419 54.2746C13.2176 54.6013 13.0741 54.8683 12.7872 54.948C12.5123 55.0237 12.2413 54.8563 12.1537 54.5256C11.8389 53.3541 11.8668 52.1786 12.1218 51.0032C12.1975 50.6525 12.2931 50.3059 12.3808 49.9592C12.3529 49.9393 12.329 49.9194 12.3051 49.8955C12.1377 50.0389 11.9624 50.1784 11.7991 50.3298C10.9264 51.1466 9.99003 51.8678 8.83449 52.2743C8.57549 52.3659 8.31649 52.4576 8.04952 52.5293C7.75864 52.609 7.47573 52.4496 7.38807 52.1826C7.31236 51.9436 7.45581 51.6567 7.74669 51.577C9.1692 51.1944 10.2929 50.3577 11.3368 49.3695C12.6757 48.1024 14.3253 47.4529 16.1144 47.0783C18.3737 46.6081 20.2664 45.5602 21.6012 43.6635C21.7845 43.4005 21.9399 43.1136 22.1073 42.8387C22.0874 42.8148 22.0674 42.7949 22.0475 42.7709C21.92 42.8068 21.7925 42.8347 21.669 42.8785C20.0432 43.4364 18.4135 43.4284 16.7878 42.9104C16.473 42.8108 16.3176 42.8028 16.1861 43.1694C15.6442 44.6477 14.4528 45.3729 12.9705 45.7036C12.2095 45.875 11.4245 45.9347 10.6555 46.0782C9.25686 46.3372 8.2886 47.1779 7.61519 48.3654C7.44784 48.6602 7.34822 48.987 7.23665 49.3057C7.11313 49.6564 6.87804 49.8237 6.57122 49.744C6.2923 49.6683 6.15284 49.4053 6.23253 49.0627C6.41981 48.2777 6.8103 47.5923 7.31236 46.9628C7.36815 46.891 7.42792 46.8233 7.4837 46.7516C7.49565 46.7356 7.49167 46.7078 7.50362 46.632C7.38807 46.6161 7.2765 46.5922 7.16095 46.5802C6.50348 46.5006 5.87391 46.3292 5.30809 45.9786C4.9694 45.7674 4.87776 45.4725 5.05308 45.2095C5.22043 44.9545 5.49139 44.9226 5.84602 45.1099C7.04141 45.7355 8.27266 45.7395 9.55571 45.3689C10.3327 45.1418 11.1496 45.0422 11.9425 44.8549C12.5761 44.7075 13.2216 44.568 13.8232 44.3289C14.5086 44.054 14.9628 43.5081 15.2298 42.8188C15.3175 42.5916 15.2697 42.4721 15.0186 42.4004C12.321 41.6234 9.70712 41.727 7.16095 42.9901C5.86993 43.6316 4.53906 44.2014 3.20421 44.7553C2.73403 44.9505 2.20806 45.0262 1.70201 45.1099C1.30355 45.1777 1.04454 44.9904 1.0047 44.6756C0.964852 44.3728 1.18002 44.1656 1.59044 44.1098C2.76989 43.9464 3.83777 43.4643 4.90166 42.9781C4.93752 42.9622 4.96542 42.9224 5.01722 42.8745C4.5032 42.7749 4.00114 42.7311 3.54689 42.5717C3.0249 42.3884 2.51886 42.1334 2.04469 41.8465C1.69404 41.6353 1.66615 41.3166 1.87733 41.0695C2.08453 40.8264 2.35549 40.8105 2.67027 41.0576C3.40743 41.6274 4.28405 41.7429 5.16863 41.8266C5.30411 41.8385 5.44357 41.8346 5.58303 41.8425C6.61107 41.9182 7.57535 41.707 8.5476 41.3684C10.5758 40.6591 12.6478 40.7627 14.7078 41.2847C15.7199 41.5437 16.7161 41.8784 17.7322 42.1135C19.4734 42.5159 21.1151 42.2171 22.6452 41.3126C22.8564 41.1851 22.9799 41.0336 22.9998 40.7786C23.1234 39.3163 22.9321 32.5623 22.9879 31.1" fill="white"/>
<path d="M23.992 31.1119C23.9283 31.9766 24.1952 39.902 24.0637 40.7587C24.0159 41.0695 24.1115 41.2408 24.3705 41.3923C25.9564 42.3286 27.6379 42.488 29.3912 41.978C30.8814 41.5437 32.3637 41.0854 33.9177 40.9181C35.651 40.7308 37.3126 40.9978 38.9264 41.6194C39.1894 41.719 39.4803 41.7867 39.7632 41.8027C40.7872 41.8664 41.8192 41.8864 42.8154 41.5835C43.2258 41.46 43.6123 41.2448 43.9829 41.0297C44.3216 40.8344 44.5806 40.8145 44.7838 41.0576C44.975 41.2887 44.9232 41.5875 44.6324 41.8266C43.9869 42.3645 43.2059 42.5877 42.389 42.7231C42.1539 42.763 41.9188 42.7949 41.5722 42.8506C41.7674 42.9582 41.867 43.022 41.9746 43.0698C43.0186 43.524 44.0546 43.9863 45.2062 44.1177C45.513 44.1496 45.6883 44.3927 45.6485 44.6676C45.6006 44.9744 45.3895 45.1498 45.0946 45.1059C44.5527 45.0223 43.9869 44.9585 43.4848 44.7513C42.146 44.2054 40.8151 43.6316 39.5281 42.9901C36.9859 41.723 34.372 41.6074 31.6704 42.3805C31.3954 42.4601 31.3277 42.5637 31.4353 42.8347C31.8417 43.8627 32.6665 44.3927 33.6906 44.6517C34.2684 44.7991 34.87 44.8549 35.4598 44.9306C36.6312 45.082 36.7787 45.1976 37.0935 46.3332C37.0974 46.3452 37.0935 46.3531 37.0895 46.397C37.0417 46.393 36.9819 46.4049 36.942 46.381C36.169 45.9945 35.3283 45.9188 34.4835 45.8391C33.6707 45.7634 32.8976 45.5442 32.1884 45.1458C31.3476 44.6756 30.738 44.0062 30.4391 43.0897C30.3714 42.8785 30.3037 42.755 30.0327 42.8467C28.2436 43.4523 26.4625 43.4603 24.7092 42.7191C24.6734 42.7032 24.6216 42.7112 24.514 42.7072C24.5738 42.8387 24.6096 42.9383 24.6614 43.0299C25.8608 45.1259 27.7136 46.3571 30.0486 46.9588C30.8695 47.17 31.7023 47.3732 32.5032 47.6441C33.6986 48.0466 34.7107 48.7559 35.6072 49.6205C36.5197 50.4971 37.5517 51.1666 38.7869 51.5292C39.1934 51.6487 39.3448 51.8918 39.2491 52.1906C39.1535 52.4934 38.8626 52.5891 38.4522 52.4775C37.0974 52.1029 35.9658 51.3698 34.9657 50.4214C34.7625 50.2302 34.5513 50.0548 34.3401 49.8676C34.3162 49.8835 34.2923 49.8994 34.2684 49.9154C34.368 50.3377 34.4835 50.7561 34.5672 51.1825C34.7824 52.2583 34.7784 53.3382 34.5313 54.41C34.4437 54.7886 34.1926 55.0037 33.9018 54.948C33.575 54.8842 33.4236 54.6133 33.5192 54.1989C33.9177 52.4456 33.575 50.792 32.8299 49.1902C32.6865 48.8794 32.4753 48.6762 32.1406 48.5845C31.244 48.3415 30.3435 48.0984 29.447 47.8434C27.0602 47.166 25.1595 45.8431 23.8725 43.7312C23.8326 43.6675 23.7768 43.6117 23.6732 43.4842C23.6453 43.6635 23.6135 43.7671 23.6175 43.8667C23.6493 45.0183 23.6812 46.1658 23.7171 47.3174C23.729 47.6441 23.8884 47.8633 24.1554 48.0745C26.1756 49.6444 27.8093 51.5092 28.7297 53.908C28.7337 53.9199 28.7417 53.9279 28.7417 53.9398C28.9449 55.2189 29.9769 55.5576 31.0289 55.8206C31.4393 55.9242 31.8975 55.8843 32.3278 55.8764C32.6904 55.8684 32.9614 56.0198 32.9973 56.3107C33.0331 56.5896 32.8339 56.8168 32.4872 56.8805C31.5827 57.0399 30.726 56.8606 29.8853 56.5418C29.8135 56.5139 29.7378 56.49 29.5864 56.4382C29.6342 56.6135 29.6581 56.7371 29.702 56.8526C30.1443 57.9364 30.6503 58.9844 31.4313 59.8809C31.6465 60.128 31.6226 60.4149 31.3994 60.6061C31.1843 60.7894 30.8575 60.7934 30.6623 60.5344C30.224 59.9447 29.7817 59.347 29.4231 58.7055C28.7098 57.4304 28.3074 56.0398 27.877 54.6531C27.2395 52.605 25.9285 50.9872 24.3466 49.5568C24.3227 49.5368 24.2869 49.5329 24.1912 49.493C24.2151 49.6643 24.2311 49.7958 24.255 49.9313C24.4702 51.0749 24.7172 52.2105 24.8925 53.3621C25.028 54.2546 24.9045 55.1432 24.6495 56.0079C24.3267 57.0837 24.6017 58.0759 25.4902 58.7652C26.4864 59.5462 26.9088 60.5663 26.9167 61.7856C26.9167 61.8732 26.9167 61.9689 26.8968 62.0565C26.845 62.3355 26.6816 62.5028 26.3828 62.5108C26.1078 62.5148 25.9126 62.3076 25.8767 62.0087C25.8289 61.5943 25.8329 61.164 25.7054 60.7775C25.5938 60.4348 25.3587 60.12 25.1316 59.8331C24.9682 59.6219 24.7172 59.4785 24.522 59.2872C24.3387 59.1039 24.1793 58.8967 23.9681 58.6497C23.9362 58.8649 23.9123 59.0322 23.8844 59.1996C23.6613 60.6101 23.6772 62.0127 24.0438 63.4033C24.0478 63.4153 24.0478 63.4233 24.0518 63.4352C24.1514 63.8536 24.0319 64.1246 23.7131 64.2003C23.4023 64.276 23.1513 64.0927 23.0477 63.6743C22.956 63.2997 22.8683 62.9252 22.8126 62.5466C22.5735 60.9129 22.7368 59.3032 23.1114 57.7053C23.3465 56.7171 23.6214 55.7409 23.8446 54.7527C23.9163 54.43 23.8924 54.0873 23.9163 53.7526C23.8605 53.7127 23.8047 53.6689 23.745 53.629C23.7091 53.7207 23.7011 53.8283 23.6374 53.9C23.2349 54.3742 22.8524 54.8762 22.4021 55.3066C21.7048 55.972 21.2068 56.7012 21.2346 57.7013C21.2426 58.0161 21.0155 58.2353 20.7326 58.2432C20.4497 58.2472 20.2265 58.044 20.2106 57.7252C20.1548 56.6853 20.5453 55.8047 21.2346 55.0356C21.4379 54.8085 21.673 54.6053 21.9001 54.3941C22.6492 53.6968 23.1552 52.8401 23.5139 51.8957C23.5497 51.8041 23.5856 51.6925 23.5657 51.6009C23.3824 50.7641 23.1871 49.9313 22.9879 49.0706C22.8962 49.0985 22.8325 49.1025 22.7966 49.1304C21.0753 50.5609 19.6448 52.2065 18.8678 54.3184C18.4853 55.3584 18.1864 56.4263 17.7959 57.4623C17.4214 58.4624 16.9153 59.4028 16.2419 60.2475C16.1782 60.3272 16.1144 60.4069 16.0427 60.4826C15.7677 60.7775 15.4689 60.8253 15.2298 60.6141C14.9868 60.4029 15.0027 60.128 15.2736 59.8092C16.0666 58.8768 16.5686 57.789 17.0109 56.6693C17.0309 56.6215 17.0229 56.5657 17.0309 56.4661C16.9153 56.502 16.8316 56.5219 16.7559 56.5538C15.9271 56.8725 15.0784 57.0479 14.1858 56.9004C13.8033 56.8367 13.6001 56.6175 13.6439 56.3266C13.6878 56.0158 13.9547 55.8565 14.3492 55.9003C15.5326 56.0437 16.5487 55.6572 17.4652 54.9639C17.5568 54.8962 17.6325 54.7726 17.6644 54.6611C18.3697 52.2265 19.8799 50.3258 21.7606 48.6642C21.8483 48.5885 21.924 48.4969 22.0236 48.4451C22.6572 48.1183 22.7568 47.6322 22.6412 46.9628C22.5137 46.2216 22.5575 45.4566 22.5296 44.6995C22.5257 44.572 22.5296 44.4405 22.5296 44.313C22.4898 44.2891 22.45 44.2652 22.4101 44.2453C22.3742 44.313 22.3503 44.3887 22.3025 44.4485C20.8083 46.4408 18.7602 47.5525 16.3375 48.0825C15.6641 48.2299 15.0107 48.449 14.3612 48.6722C14.1858 48.7319 14.0025 48.8953 13.9189 49.0547C13.0741 50.7083 12.7115 52.4337 13.1419 54.2746C13.2176 54.6013 13.0741 54.8683 12.7872 54.948C12.5123 55.0237 12.2413 54.8563 12.1537 54.5256C11.8389 53.3541 11.8668 52.1786 12.1218 51.0032C12.1975 50.6525 12.2931 50.3059 12.3808 49.9592C12.3529 49.9393 12.329 49.9194 12.3051 49.8955C12.1377 50.0389 11.9624 50.1784 11.7991 50.3298C10.9264 51.1466 9.99003 51.8678 8.83449 52.2743C8.57549 52.3659 8.31649 52.4576 8.04952 52.5293C7.75864 52.609 7.47573 52.4496 7.38807 52.1826C7.31236 51.9436 7.45581 51.6567 7.74669 51.577C9.1692 51.1944 10.2929 50.3577 11.3368 49.3695C12.6757 48.1024 14.3253 47.4529 16.1144 47.0783C18.3737 46.6081 20.2664 45.5602 21.6012 43.6635C21.7845 43.4005 21.9399 43.1136 22.1073 42.8387C22.0874 42.8148 22.0674 42.7949 22.0475 42.7709C21.92 42.8068 21.7925 42.8347 21.669 42.8785C20.0432 43.4364 18.4135 43.4284 16.7878 42.9104C16.473 42.8108 16.3176 42.8028 16.1861 43.1694C15.6442 44.6477 14.4528 45.3729 12.9705 45.7036C12.2095 45.875 11.4245 45.9347 10.6555 46.0782C9.25686 46.3372 8.2886 47.1779 7.61519 48.3654C7.44784 48.6602 7.34822 48.987 7.23665 49.3057C7.11313 49.6564 6.87804 49.8237 6.57122 49.744C6.2923 49.6683 6.15284 49.4053 6.23253 49.0627C6.41981 48.2777 6.8103 47.5923 7.31236 46.9628C7.36815 46.891 7.42792 46.8233 7.4837 46.7516C7.49565 46.7356 7.49167 46.7078 7.50362 46.632C7.38807 46.6161 7.2765 46.5922 7.16095 46.5802C6.50348 46.5006 5.87391 46.3292 5.30809 45.9786C4.9694 45.7674 4.87776 45.4725 5.05308 45.2095C5.22043 44.9545 5.49139 44.9226 5.84602 45.1099C7.04141 45.7355 8.27266 45.7395 9.55571 45.3689C10.3327 45.1418 11.1496 45.0422 11.9425 44.8549C12.5761 44.7075 13.2216 44.568 13.8232 44.3289C14.5086 44.054 14.9628 43.5081 15.2298 42.8188C15.3175 42.5916 15.2697 42.4721 15.0186 42.4004C12.321 41.6234 9.70712 41.727 7.16095 42.9901C5.86993 43.6316 4.53906 44.2014 3.20421 44.7553C2.73403 44.9505 2.20806 45.0262 1.70201 45.1099C1.30355 45.1777 1.04454 44.9904 1.0047 44.6756C0.964852 44.3728 1.18002 44.1656 1.59044 44.1098C2.76989 43.9464 3.83777 43.4643 4.90166 42.9781C4.93752 42.9622 4.96542 42.9224 5.01722 42.8745C4.5032 42.7749 4.00114 42.7311 3.54689 42.5717C3.0249 42.3884 2.51886 42.1334 2.04469 41.8465C1.69404 41.6353 1.66615 41.3166 1.87733 41.0695C2.08453 40.8264 2.35549 40.8105 2.67027 41.0576C3.40743 41.6274 4.28405 41.7429 5.16863 41.8266C5.30411 41.8385 5.44357 41.8346 5.58303 41.8425C6.61107 41.9182 7.57535 41.707 8.5476 41.3684C10.5758 40.6591 12.6478 40.7627 14.7078 41.2847C15.7199 41.5437 16.7161 41.8784 17.7322 42.1135C19.4734 42.5159 21.1151 42.2171 22.6452 41.3126C22.8564 41.1851 22.9799 41.0336 22.9998 40.7786C23.1234 39.3163 22.9321 32.5623 22.9879 31.1" fill="white"/>
<path d="M23.992 31.1119C23.9283 31.9766 24.1952 39.902 24.0637 40.7587C24.0159 41.0695 24.1115 41.2408 24.3705 41.3923C25.9564 42.3286 27.6379 42.488 29.3912 41.978C30.8814 41.5437 32.3637 41.0854 33.9177 40.9181C35.651 40.7308 37.3126 40.9978 38.9264 41.6194C39.1894 41.719 39.4802 41.7867 39.7632 41.8027C40.7872 41.8664 41.8192 41.8864 42.8154 41.5835C43.2258 41.46 43.6123 41.2448 43.9829 41.0297C44.3216 40.8344 44.5806 40.8145 44.7838 41.0576C44.975 41.2887 44.9232 41.5875 44.6324 41.8266C43.9869 42.3645 43.2059 42.5877 42.389 42.7231C42.1539 42.763 41.9188 42.7949 41.5722 42.8506C41.7674 42.9582 41.867 43.022 41.9746 43.0698C43.0186 43.524 44.0546 43.9863 45.2062 44.1177C45.513 44.1496 45.6883 44.3927 45.6485 44.6676C45.6006 44.9744 45.3894 45.1498 45.0946 45.1059C44.5527 45.0223 43.9869 44.9585 43.4848 44.7513C42.146 44.2054 40.8151 43.6316 39.5281 42.9901C36.9859 41.723 34.372 41.6074 31.6704 42.3805C31.3954 42.4601 31.3277 42.5637 31.4353 42.8347C31.8417 43.8627 32.6665 44.3927 33.6906 44.6517C34.2684 44.7991 34.87 44.8549 35.4598 44.9306C36.6312 45.082 36.7787 45.1976 37.0935 46.3332C37.0974 46.3452 37.0935 46.3531 37.0895 46.397C37.0417 46.393 36.9819 46.4049 36.942 46.381C36.169 45.9945 35.3283 45.9188 34.4835 45.8391C33.6707 45.7634 32.8976 45.5442 32.1884 45.1458C31.3476 44.6756 30.738 44.0062 30.4391 43.0897C30.3714 42.8785 30.3037 42.755 30.0327 42.8467C28.2436 43.4523 26.4625 43.4603 24.7092 42.7191C24.6734 42.7032 24.6216 42.7112 24.514 42.7072C24.5738 42.8387 24.6096 42.9383 24.6614 43.0299C25.8608 45.1259 27.7136 46.3571 30.0486 46.9588C30.8695 47.17 31.7023 47.3732 32.5032 47.6441C33.6986 48.0466 34.7107 48.7559 35.6072 49.6205C36.5197 50.4971 37.5517 51.1666 38.7869 51.5292C39.1934 51.6487 39.3448 51.8918 39.2491 52.1906C39.1535 52.4934 38.8626 52.5891 38.4522 52.4775C37.0974 52.1029 35.9658 51.3698 34.9657 50.4214C34.7625 50.2302 34.5513 50.0548 34.3401 49.8676C34.3162 49.8835 34.2923 49.8994 34.2684 49.9154C34.368 50.3377 34.4835 50.7561 34.5672 51.1825C34.7824 52.2583 34.7784 53.3382 34.5313 54.41C34.4437 54.7886 34.1927 55.0037 33.9018 54.948C33.575 54.8842 33.4236 54.6133 33.5192 54.1989C33.9177 52.4456 33.575 50.792 32.8299 49.1902C32.6865 48.8794 32.4753 48.6762 32.1406 48.5845C31.244 48.3415 30.3435 48.0984 29.447 47.8434C27.0602 47.166 25.1595 45.8431 23.8725 43.7312C23.8326 43.6675 23.7768 43.6117 23.6732 43.4842C23.6453 43.6635 23.6135 43.7671 23.6175 43.8667C23.6493 45.0183 23.6812 46.1658 23.7171 47.3174C23.729 47.6441 23.8884 47.8633 24.1554 48.0745C26.1756 49.6444 27.8093 51.5092 28.7297 53.908C28.7337 53.9199 28.7417 53.9279 28.7417 53.9398C28.9449 55.2189 29.9769 55.5576 31.0289 55.8206C31.4393 55.9242 31.8975 55.8843 32.3278 55.8764C32.6904 55.8684 32.9614 56.0198 32.9973 56.3107C33.0331 56.5896 32.8339 56.8168 32.4872 56.8805C31.5827 57.0399 30.726 56.8606 29.8853 56.5418C29.8135 56.5139 29.7378 56.49 29.5864 56.4382C29.6342 56.6135 29.6581 56.7371 29.702 56.8526C30.1443 57.9364 30.6503 58.9844 31.4313 59.8809C31.6465 60.128 31.6226 60.4149 31.3994 60.6061C31.1843 60.7894 30.8575 60.7934 30.6623 60.5344C30.224 59.9447 29.7817 59.347 29.4231 58.7055C28.7098 57.4304 28.3074 56.0398 27.877 54.6531C27.2395 52.605 25.9285 50.9872 24.3466 49.5568C24.3227 49.5368 24.2869 49.5329 24.1912 49.493C24.2151 49.6643 24.2311 49.7958 24.255 49.9313C24.4702 51.0749 24.7172 52.2105 24.8925 53.3621C25.028 54.2546 24.9045 55.1432 24.6495 56.0079C24.3267 57.0837 24.6017 58.0759 25.4902 58.7652C26.4864 59.5462 26.9088 60.5663 26.9167 61.7856C26.9167 61.8732 26.9167 61.9689 26.8968 62.0565C26.845 62.3355 26.6816 62.5028 26.3828 62.5108C26.1078 62.5148 25.9126 62.3076 25.8767 62.0087C25.8289 61.5943 25.8329 61.164 25.7054 60.7775C25.5938 60.4348 25.3587 60.12 25.1316 59.8331C24.9682 59.6219 24.7172 59.4785 24.522 59.2872C24.3387 59.1039 24.1793 58.8967 23.9681 58.6497C23.9362 58.8649 23.9123 59.0322 23.8844 59.1996C23.6613 60.6101 23.6772 62.0127 24.0438 63.4033C24.0478 63.4153 24.0478 63.4233 24.0518 63.4352C24.1514 63.8536 24.0319 64.1246 23.7131 64.2003C23.4023 64.276 23.1513 64.0927 23.0477 63.6743C22.956 63.2997 22.8683 62.9252 22.8126 62.5466C22.5735 60.9129 22.7368 59.3032 23.1114 57.7053C23.3465 56.7171 23.6214 55.7409 23.8446 54.7527C23.9163 54.43 23.8924 54.0873 23.9163 53.7526C23.8605 53.7127 23.8047 53.6689 23.745 53.629C23.7091 53.7207 23.7011 53.8283 23.6374 53.9C23.2349 54.3742 22.8524 54.8762 22.4021 55.3066C21.7048 55.972 21.2068 56.7012 21.2346 57.7013C21.2426 58.0161 21.0155 58.2353 20.7326 58.2432C20.4497 58.2472 20.2265 58.044 20.2106 57.7252C20.1548 56.6853 20.5453 55.8047 21.2346 55.0356C21.4379 54.8085 21.673 54.6053 21.9001 54.3941C22.6492 53.6968 23.1552 52.8401 23.5139 51.8957C23.5497 51.8041 23.5856 51.6925 23.5657 51.6009C23.3824 50.7641 23.1871 49.9313 22.9879 49.0706C22.8962 49.0985 22.8325 49.1025 22.7966 49.1304C21.0753 50.5609 19.6448 52.2065 18.8678 54.3184C18.4853 55.3584 18.1864 56.4263 17.7959 57.4623C17.4214 58.4624 16.9153 59.4028 16.2419 60.2475C16.1782 60.3272 16.1144 60.4069 16.0427 60.4826C15.7677 60.7775 15.4689 60.8253 15.2298 60.6141C14.9868 60.4029 15.0027 60.128 15.2736 59.8092C16.0666 58.8768 16.5686 57.789 17.0109 56.6693C17.0309 56.6215 17.0229 56.5657 17.0309 56.4661C16.9153 56.502 16.8316 56.5219 16.7559 56.5538C15.9271 56.8725 15.0784 57.0479 14.1858 56.9004C13.8033 56.8367 13.6001 56.6175 13.6439 56.3266C13.6878 56.0158 13.9547 55.8565 14.3492 55.9003C15.5326 56.0437 16.5487 55.6572 17.4652 54.9639C17.5568 54.8962 17.6325 54.7726 17.6644 54.6611C18.3697 52.2265 19.8799 50.3258 21.7606 48.6642C21.8483 48.5885 21.924 48.4969 22.0236 48.4451C22.6572 48.1183 22.7568 47.6322 22.6412 46.9628C22.5137 46.2216 22.5575 45.4566 22.5296 44.6995C22.5257 44.572 22.5296 44.4405 22.5296 44.313C22.4898 44.2891 22.45 44.2652 22.4101 44.2453C22.3742 44.313 22.3503 44.3887 22.3025 44.4485C20.8083 46.4408 18.7602 47.5525 16.3375 48.0825C15.6641 48.2299 15.0107 48.449 14.3612 48.6722C14.1858 48.7319 14.0025 48.8953 13.9189 49.0547C13.0741 50.7083 12.7115 52.4337 13.1419 54.2746C13.2176 54.6013 13.0741 54.8683 12.7872 54.948C12.5123 55.0237 12.2413 54.8563 12.1537 54.5256C11.8389 53.3541 11.8668 52.1786 12.1218 51.0032C12.1975 50.6525 12.2931 50.3059 12.3808 49.9592C12.3529 49.9393 12.329 49.9194 12.3051 49.8955C12.1377 50.0389 11.9624 50.1784 11.7991 50.3298C10.9264 51.1466 9.99003 51.8678 8.83449 52.2743C8.57549 52.3659 8.31649 52.4576 8.04952 52.5293C7.75864 52.609 7.47573 52.4496 7.38807 52.1826C7.31236 51.9436 7.45581 51.6567 7.74669 51.577C9.1692 51.1944 10.2929 50.3577 11.3368 49.3695C12.6757 48.1024 14.3253 47.4529 16.1144 47.0783C18.3737 46.6081 20.2664 45.5602 21.6012 43.6635C21.7845 43.4005 21.9399 43.1136 22.1073 42.8387C22.0874 42.8148 22.0674 42.7949 22.0475 42.7709C21.92 42.8068 21.7925 42.8347 21.669 42.8785C20.0432 43.4364 18.4135 43.4284 16.7878 42.9104C16.473 42.8108 16.3176 42.8028 16.1861 43.1694C15.6442 44.6477 14.4528 45.3729 12.9705 45.7036C12.2095 45.875 11.4245 45.9347 10.6555 46.0782C9.25686 46.3372 8.2886 47.1779 7.61519 48.3654C7.44784 48.6602 7.34822 48.987 7.23665 49.3057C7.11313 49.6564 6.87804 49.8237 6.57122 49.744C6.2923 49.6683 6.15284 49.4053 6.23253 49.0627C6.41981 48.2777 6.8103 47.5923 7.31236 46.9628C7.36815 46.891 7.42792 46.8233 7.4837 46.7516C7.49565 46.7356 7.49167 46.7078 7.50362 46.632C7.38807 46.6161 7.2765 46.5922 7.16095 46.5802C6.50348 46.5006 5.87391 46.3292 5.30809 45.9786C4.9694 45.7674 4.87776 45.4725 5.05308 45.2095C5.22043 44.9545 5.49139 44.9226 5.84602 45.1099C7.04141 45.7355 8.27266 45.7395 9.55571 45.3689C10.3327 45.1418 11.1496 45.0422 11.9425 44.8549C12.5761 44.7075 13.2216 44.568 13.8232 44.3289C14.5086 44.054 14.9628 43.5081 15.2298 42.8188C15.3175 42.5916 15.2697 42.4721 15.0186 42.4004C12.321 41.6234 9.70712 41.727 7.16095 42.9901C5.86993 43.6316 4.53906 44.2014 3.20421 44.7553C2.73403 44.9505 2.20806 45.0262 1.70201 45.1099C1.30355 45.1777 1.04454 44.9904 1.0047 44.6756C0.964852 44.3728 1.18002 44.1656 1.59044 44.1098C2.76989 43.9464 3.83777 43.4643 4.90166 42.9781C4.93752 42.9622 4.96542 42.9224 5.01722 42.8745C4.5032 42.7749 4.00114 42.7311 3.54689 42.5717C3.0249 42.3884 2.51886 42.1334 2.04469 41.8465C1.69404 41.6353 1.66615 41.3166 1.87733 41.0695C2.08453 40.8264 2.35549 40.8105 2.67027 41.0576C3.40743 41.6274 4.28405 41.7429 5.16863 41.8266C5.30411 41.8385 5.44357 41.8346 5.58303 41.8425C6.61107 41.9182 7.57535 41.707 8.5476 41.3684C10.5758 40.6591 12.6478 40.7627 14.7078 41.2847C15.7199 41.5437 16.7161 41.8784 17.7322 42.1135C19.4734 42.5159 21.1151 42.2171 22.6452 41.3126C22.8564 41.1851 22.9799 41.0336 22.9998 40.7786C23.1234 39.3163 22.9321 32.5623 22.9879 31.1" stroke="#05A93D" stroke-width="0.398463"/>
<path d="M40.5643 49.4811C40.5603 49.3656 40.5404 49.266 40.5005 49.1982C40.1698 48.6045 39.8271 48.0188 39.4805 47.429C39.4605 47.3932 39.4326 47.3613 39.3928 47.3095C39.3808 47.2975 39.3689 47.2816 39.3529 47.2657C39.3211 47.2258 39.2812 47.182 39.2414 47.1302L39.0143 46.8433L39.3769 46.8074C39.4326 46.8035 39.4844 46.7955 39.5323 46.7915C39.6598 46.7795 39.7514 46.7716 39.847 46.7596C40.5005 46.6799 41.1102 46.5126 41.6401 46.1739C41.7477 46.1061 41.7955 46.0304 41.8115 45.9707C41.8274 45.9149 41.8194 45.8511 41.7716 45.7874C41.7198 45.7117 41.6521 45.6678 41.5843 45.6559C41.5126 45.6399 41.421 45.6519 41.3094 45.7117C40.64 46.0822 39.9188 46.2177 39.1736 46.2536H39.1697H39.1657C38.2651 46.2496 37.7511 45.9189 37.3088 45.6041C37.2929 45.5921 37.273 45.5802 37.257 45.5682C36.9542 45.353 36.6872 45.1658 36.3286 45.0821C36.3804 45.1737 36.4402 45.2773 36.492 45.3809C36.5956 45.5762 36.6992 45.7834 36.7709 45.9507C36.8068 46.0344 36.8347 46.1101 36.8546 46.1739C36.8626 46.2058 36.8705 46.2416 36.8745 46.2815C36.8745 46.2934 36.8745 46.3094 36.8745 46.3293C36.9502 46.389 37.0817 46.4687 37.2411 46.5564C37.3686 46.6241 37.5041 46.6959 37.6356 46.7636C37.6635 46.7795 37.6914 46.7955 37.7192 46.8074C37.8667 46.8831 38.0061 46.9589 38.0898 47.0146C38.7991 47.4888 39.337 48.0985 39.6877 48.8436C39.7474 48.9751 39.7992 49.1105 39.8431 49.2381C39.847 49.254 39.855 49.2699 39.859 49.2859C39.8988 49.3974 39.9347 49.505 39.9785 49.6046C40.0144 49.6883 40.0622 49.7322 40.11 49.76C40.1618 49.784 40.2375 49.7959 40.3411 49.776L40.5643 49.4811ZM40.5643 49.4811C40.5683 49.5728 40.5483 49.6325 40.5165 49.6724C40.4886 49.7122 40.4328 49.7481 40.3332 49.768L40.5643 49.4811Z" fill="white"/>
<path d="M40.5643 49.4811C40.5603 49.3656 40.5404 49.266 40.5005 49.1982C40.1698 48.6045 39.8271 48.0188 39.4805 47.429C39.4605 47.3932 39.4326 47.3613 39.3928 47.3095C39.3808 47.2975 39.3689 47.2816 39.3529 47.2657C39.3211 47.2258 39.2812 47.182 39.2414 47.1302L39.0143 46.8433L39.3769 46.8074C39.4326 46.8035 39.4844 46.7955 39.5323 46.7915C39.6598 46.7795 39.7514 46.7716 39.847 46.7596C40.5005 46.6799 41.1102 46.5126 41.6401 46.1739C41.7477 46.1061 41.7955 46.0304 41.8115 45.9707C41.8274 45.9149 41.8194 45.8511 41.7716 45.7874C41.7198 45.7117 41.6521 45.6678 41.5843 45.6559C41.5126 45.6399 41.421 45.6519 41.3094 45.7117C40.64 46.0822 39.9188 46.2177 39.1736 46.2536H39.1697H39.1657C38.2651 46.2496 37.7511 45.9189 37.3088 45.6041C37.2929 45.5921 37.273 45.5802 37.257 45.5682C36.9542 45.353 36.6872 45.1658 36.3286 45.0821C36.3804 45.1737 36.4402 45.2773 36.492 45.3809C36.5956 45.5762 36.6992 45.7834 36.7709 45.9507C36.8068 46.0344 36.8347 46.1101 36.8546 46.1739C36.8626 46.2058 36.8705 46.2416 36.8745 46.2815C36.8745 46.2934 36.8745 46.3094 36.8745 46.3293C36.9502 46.389 37.0817 46.4687 37.2411 46.5564C37.3686 46.6241 37.5041 46.6959 37.6356 46.7636C37.6635 46.7795 37.6914 46.7955 37.7192 46.8074C37.8667 46.8831 38.0061 46.9589 38.0898 47.0146C38.7991 47.4888 39.337 48.0985 39.6877 48.8436C39.7474 48.9751 39.7992 49.1105 39.8431 49.2381C39.847 49.254 39.855 49.2699 39.859 49.2859C39.8988 49.3974 39.9347 49.505 39.9785 49.6046C40.0144 49.6883 40.0622 49.7322 40.11 49.76C40.1618 49.784 40.2375 49.7959 40.3411 49.776L40.5643 49.4811ZM40.5643 49.4811C40.5683 49.5728 40.5483 49.6325 40.5165 49.6724C40.4886 49.7122 40.4328 49.7481 40.3332 49.768L40.5643 49.4811Z" stroke="#05A93D" stroke-width="0.398463"/>
</svg>
