<svg width="14" height="13" viewBox="0 0 14 13" fill="none" xmlns="http://www.w3.org/2000/svg">
<path d="M4.35399 0H9.77581C11.8413 0 13.5194 1.67818 13.5194 3.74364V9.16545C13.5194 10.1583 13.125 11.1105 12.423 11.8126C11.7209 12.5147 10.7687 12.9091 9.77581 12.9091H4.35399C2.28853 12.9091 0.610352 11.2309 0.610352 9.16545V3.74364C0.610352 2.75076 1.00477 1.79855 1.70684 1.09649C2.40891 0.394418 3.36111 0 4.35399 0ZM4.2249 1.29091C3.60863 1.29091 3.0176 1.53572 2.58184 1.97149C2.14607 2.40725 1.90126 2.99828 1.90126 3.61455V9.29455C1.90126 10.579 2.94044 11.6182 4.2249 11.6182H9.9049C10.5212 11.6182 11.1122 11.3734 11.548 10.9376C11.9837 10.5018 12.2285 9.91081 12.2285 9.29455V3.61455C12.2285 2.33009 11.1894 1.29091 9.9049 1.29091H4.2249ZM10.4535 2.25909C10.6675 2.25909 10.8727 2.34409 11.024 2.4954C11.1753 2.64671 11.2604 2.85193 11.2604 3.06591C11.2604 3.27989 11.1753 3.48511 11.024 3.63642C10.8727 3.78772 10.6675 3.87273 10.4535 3.87273C10.2396 3.87273 10.0343 3.78772 9.88303 3.63642C9.73172 3.48511 9.64672 3.27989 9.64672 3.06591C9.64672 2.85193 9.73172 2.64671 9.88303 2.4954C10.0343 2.34409 10.2396 2.25909 10.4535 2.25909ZM7.0649 3.22727C7.92082 3.22727 8.74169 3.56729 9.34692 4.17252C9.95215 4.77775 10.2922 5.59862 10.2922 6.45455C10.2922 7.31047 9.95215 8.13134 9.34692 8.73657C8.74169 9.3418 7.92082 9.68182 7.0649 9.68182C6.20897 9.68182 5.3881 9.3418 4.78287 8.73657C4.17764 8.13134 3.83762 7.31047 3.83762 6.45455C3.83762 5.59862 4.17764 4.77775 4.78287 4.17252C5.3881 3.56729 6.20897 3.22727 7.0649 3.22727ZM7.0649 4.51818C6.55134 4.51818 6.05882 4.72219 5.69568 5.08533C5.33254 5.44847 5.12853 5.94099 5.12853 6.45455C5.12853 6.9681 5.33254 7.46062 5.69568 7.82376C6.05882 8.1869 6.55134 8.39091 7.0649 8.39091C7.57845 8.39091 8.07097 8.1869 8.43411 7.82376C8.79725 7.46062 9.00126 6.9681 9.00126 6.45455C9.00126 5.94099 8.79725 5.44847 8.43411 5.08533C8.07097 4.72219 7.57845 4.51818 7.0649 4.51818Z" fill="white"/>
</svg>
