<svg width="14" height="12" viewBox="0 0 14 12" fill="none" xmlns="http://www.w3.org/2000/svg">
<path d="M13.7143 1.30176C13.2391 1.52956 12.727 1.67927 12.1963 1.75086C12.7393 1.4059 13.1589 0.85916 13.3564 0.201772C12.8442 0.527212 12.2765 0.755019 11.6779 0.885195C11.1905 0.325439 10.5055 0 9.728 0C8.27789 0 7.09311 1.24969 7.09311 2.79227C7.09311 3.01357 7.1178 3.22836 7.16099 3.43013C4.96422 3.31297 3.00811 2.19997 1.7061 0.514194C1.47778 0.924247 1.3482 1.4059 1.3482 1.91358C1.3482 2.88339 1.811 3.74255 2.5268 4.23071C2.08868 4.23071 1.68141 4.10053 1.32351 3.90527V3.9248C1.32351 5.27862 2.23678 6.41115 3.44623 6.665C3.05793 6.77708 2.65027 6.79268 2.25529 6.71056C2.42289 7.26542 2.75113 7.75093 3.19386 8.09884C3.6366 8.44674 4.17157 8.63956 4.72357 8.65018C3.78786 9.43151 2.628 9.85386 1.43459 9.84779C1.22478 9.84779 1.01498 9.83477 0.805176 9.80874C1.97761 10.6028 3.37218 11.0649 4.86549 11.0649C9.728 11.0649 12.3999 6.80819 12.3999 3.11771C12.3999 2.99404 12.3999 2.87688 12.3937 2.75322C12.9121 2.36269 13.3564 1.86802 13.7143 1.30176Z" fill="white"/>
</svg>
