<svg width="12" height="14" viewBox="0 0 12 14" fill="none" xmlns="http://www.w3.org/2000/svg">
<path d="M9.72542 9.72541H9.00928V9.29508C9.00928 9.06557 9.12386 8.95082 9.35303 8.95082H9.38167C9.61084 8.95082 9.72542 9.06557 9.72542 9.29508V9.72541ZM7.00407 8.80737C6.7749 8.80737 6.66032 8.903 6.66032 9.09426V11.1311C6.66032 11.3224 6.7749 11.418 7.00407 11.418C7.23324 11.418 7.34782 11.3224 7.34782 11.1311V9.09426C7.34782 8.903 7.23324 8.80737 7.00407 8.80737ZM11.4155 7.65983V11.5615C11.4155 12.0396 11.2389 12.4413 10.8856 12.7664C10.5323 13.0915 10.1074 13.2541 9.61084 13.2541H2.22021C1.72369 13.2541 1.29877 13.0915 0.945475 12.7664C0.592177 12.4413 0.415527 12.0396 0.415527 11.5615V7.65983C0.415527 7.20082 0.592177 6.80396 0.945475 6.46926C1.29877 6.13456 1.72369 5.96721 2.22021 5.96721H9.61084C10.1074 5.96721 10.5323 6.13456 10.8856 6.46926C11.2389 6.80396 11.4155 7.20082 11.4155 7.65983ZM2.70719 11.9918V7.88934H3.62386V7.28688L1.18896 7.25819V7.86065H1.93376V11.9918H2.70719ZM5.45719 8.4918H4.68376V11.2172C4.64556 11.3128 4.57872 11.375 4.48324 11.4037C4.38775 11.4324 4.31136 11.3798 4.25407 11.2459V10.7008L4.22542 8.4918H3.48063V11.3607C3.51883 11.6858 3.58567 11.877 3.68115 11.9344C3.85303 12.0492 4.06787 12.054 4.32568 11.9488C4.5835 11.8436 4.76015 11.7049 4.85563 11.5328V11.9918H5.45719V8.4918ZM7.89209 11.0164V9.18032C7.89209 8.81694 7.77751 8.5683 7.54834 8.43442C7.31917 8.30054 7.03271 8.36748 6.68896 8.63524V7.28688H5.91553V11.9631H6.54574L6.60303 11.6475C7.00407 11.9918 7.32395 12.0874 7.56266 11.9344C7.80138 11.7814 7.91119 11.4754 7.89209 11.0164ZM10.2983 10.7582H9.72542V11.1598C9.72542 11.3702 9.62039 11.4754 9.41032 11.4754H9.29574C9.08567 11.4754 8.98063 11.3702 8.98063 11.1598V10.3279H10.2983V9.84016C10.2983 9.34289 10.2888 9.02732 10.2697 8.89344C10.2124 8.58743 10.0071 8.39617 9.65381 8.31967C9.30051 8.24317 9.00928 8.29098 8.78011 8.46311C8.62733 8.59699 8.5223 8.74043 8.46501 8.89344C8.40771 9.08469 8.37907 9.34289 8.37907 9.66803V10.7582C8.37907 11.4658 8.64643 11.877 9.18115 11.9918C9.63949 12.0874 9.97369 11.9344 10.1838 11.5328C10.3174 11.3224 10.3556 11.0642 10.2983 10.7582ZM7.34782 4.84836C7.38601 4.94398 7.45285 5.02049 7.54834 5.07786C7.62473 5.13524 7.72976 5.16393 7.86344 5.16393C7.97803 5.16393 8.07351 5.13524 8.1499 5.07786C8.22629 5.02049 8.29313 4.93442 8.35042 4.81967V5.10655H9.2098V1.46311H8.5223V4.30327C8.5223 4.49453 8.42681 4.59016 8.23584 4.59016C8.06396 4.59016 7.97803 4.49453 7.97803 4.30327V1.46311H7.26188V3.93032C7.26188 4.27459 7.27143 4.48497 7.29053 4.56147C7.29053 4.63797 7.30962 4.7336 7.34782 4.84836ZM4.76969 2.81147C4.76969 2.46721 4.79834 2.18989 4.85563 1.9795C4.91292 1.80737 5.01796 1.65437 5.17074 1.52049C5.32351 1.40573 5.51449 1.34836 5.74365 1.34836C5.95372 1.34836 6.1256 1.38661 6.25928 1.46311C6.39296 1.52049 6.49799 1.61612 6.57438 1.75C6.65077 1.84562 6.70806 1.96994 6.74626 2.12295C6.76535 2.21858 6.7749 2.41939 6.7749 2.72541V3.64344C6.7749 4.02595 6.76535 4.27459 6.74626 4.38934C6.72716 4.52322 6.66987 4.66666 6.57438 4.81967C6.51709 4.9153 6.41206 5.02049 6.25928 5.13524C6.1065 5.19262 5.95372 5.22131 5.80094 5.22131C5.60997 5.22131 5.4381 5.19262 5.28532 5.13524C5.15164 5.07786 5.0466 4.9918 4.97021 4.87705C4.89383 4.72404 4.84608 4.59016 4.82699 4.47541C4.78879 4.28415 4.76969 4.04508 4.76969 3.75819V2.81147ZM5.42855 4.2459C5.42855 4.34153 5.46197 4.42759 5.52881 4.50409C5.59565 4.5806 5.67681 4.61885 5.7723 4.61885C6.00146 4.61885 6.11605 4.49453 6.11605 4.2459V2.32377C6.11605 2.07513 6.00146 1.95082 5.7723 1.95082C5.54313 1.95082 5.42855 2.07513 5.42855 2.32377V4.2459ZM3.07959 5.22131H3.88167V2.43852L4.82699 0.057373H3.96761L3.45199 1.83606L2.93636 0.057373H2.07699L3.07959 2.43852V5.22131Z" fill="white"/>
</svg>
